  0
SECTION
  2
HEADER
  9
$ANGBASE
  50
0.0
  9
$ANGDIR
  70
  1
  9
$MEASUREMENT
  70
0
  0
ENDSEC
  0
SECTION
  2
TABLES
  0
TABLE
  2
LTYPE
  70
1
  0
LTYPE
  2
CONTINUOUS
  70
0
  3
Solid line
  72
65
  73
0
  40
0.0
  0
ENDTAB
  0
TABLE
  2
STYLE
  70
4
  0
STYLE
  2
KICAD
  70
0
  40
0
  41
1
  42
1
  50
0
  71
0
  3
isocp.shx
  0
STYLE
  2
KICADB
  70
0
  40
0
  41
1
  42
1
  50
0
  71
0
  3
isocp.shx
  0
STYLE
  2
KICADI
  70
0
  40
0
  41
1
  42
1
  50
15
  71
0
  3
isocp.shx
  0
STYLE
  2
KICADBI
  70
0
  40
0
  41
1
  42
1
  50
15
  71
0
  3
isocp.shx
  0
ENDTAB
  0
TABLE
  2
LAYER
  70
30
  0
LAYER
  2
BLACK
  70
0
  62
7
  6
CONTINUOUS
  0
LAYER
  2
GRAY1
  70
0
  62
251
  6
CONTINUOUS
  0
LAYER
  2
GRAY2
  70
0
  62
8
  6
CONTINUOUS
  0
LAYER
  2
GRAY3
  70
0
  62
9
  6
CONTINUOUS
  0
LAYER
  2
WHITE
  70
0
  62
7
  6
CONTINUOUS
  0
LAYER
  2
LYELLOW
  70
0
  62
51
  6
CONTINUOUS
  0
LAYER
  2
BLUE1
  70
0
  62
178
  6
CONTINUOUS
  0
LAYER
  2
GREEN1
  70
0
  62
98
  6
CONTINUOUS
  0
LAYER
  2
CYAN1
  70
0
  62
138
  6
CONTINUOUS
  0
LAYER
  2
RED1
  70
0
  62
18
  6
CONTINUOUS
  0
LAYER
  2
MAGENTA1
  70
0
  62
228
  6
CONTINUOUS
  0
LAYER
  2
BROWN1
  70
0
  62
58
  6
CONTINUOUS
  0
LAYER
  2
BLUE2
  70
0
  62
5
  6
CONTINUOUS
  0
LAYER
  2
GREEN2
  70
0
  62
3
  6
CONTINUOUS
  0
LAYER
  2
CYAN2
  70
0
  62
4
  6
CONTINUOUS
  0
LAYER
  2
RED2
  70
0
  62
1
  6
CONTINUOUS
  0
LAYER
  2
MAGENTA2
  70
0
  62
6
  6
CONTINUOUS
  0
LAYER
  2
BROWN2
  70
0
  62
54
  6
CONTINUOUS
  0
LAYER
  2
BLUE3
  70
0
  62
171
  6
CONTINUOUS
  0
LAYER
  2
GREEN3
  70
0
  62
91
  6
CONTINUOUS
  0
LAYER
  2
CYAN3
  70
0
  62
131
  6
CONTINUOUS
  0
LAYER
  2
RED3
  70
0
  62
11
  6
CONTINUOUS
  0
LAYER
  2
MAGENTA3
  70
0
  62
221
  6
CONTINUOUS
  0
LAYER
  2
YELLOW3
  70
0
  62
2
  6
CONTINUOUS
  0
LAYER
  2
BLUE4
  70
0
  62
5
  6
CONTINUOUS
  0
LAYER
  2
GREEN4
  70
0
  62
3
  6
CONTINUOUS
  0
LAYER
  2
CYAN4
  70
0
  62
4
  6
CONTINUOUS
  0
LAYER
  2
RED4
  70
0
  62
1
  6
CONTINUOUS
  0
LAYER
  2
MAGENTA4
  70
0
  62
6
  6
CONTINUOUS
  0
LAYER
  2
YELLOW4
  70
0
  62
2
  6
CONTINUOUS
  0
ENDTAB
  0
ENDSEC
  0
SECTION
  2
ENTITIES
0
LINE
8
Black
10
3.39344
20
-8.94842
11
2.19456
21
-8.94842
0
LINE
8
Black
10
2.19456
20
-8.94842
11
2.19456
21
-7.74954
0
LINE
8
Black
10
2.19456
20
-7.74954
11
3.39344
21
-7.74954
0
LINE
8
Black
10
3.39344
20
-7.74954
11
3.39344
21
-8.94842
0
LINE
8
Black
10
3.39344
20
-11.0465
11
2.19456
21
-11.0465
0
LINE
8
Black
10
2.19456
20
-11.0465
11
2.19456
21
-9.84758
0
LINE
8
Black
10
2.19456
20
-9.84758
11
3.39344
21
-9.84758
0
LINE
8
Black
10
3.39344
20
-9.84758
11
3.39344
21
-11.0465
0
LINE
8
Black
10
3.42773
20
-60.4533
11
1.39827
21
-60.4533
0
LINE
8
Black
10
1.39827
20
-60.4533
11
1.39827
21
-59.3128
0
LINE
8
Black
10
1.39827
20
-59.3128
11
3.42773
21
-59.3128
0
LINE
8
Black
10
3.42773
20
-59.3128
11
3.42773
21
-60.4533
0
LINE
8
Black
10
3.42773
20
-62.8612
11
1.39827
21
-62.8612
0
LINE
8
Black
10
1.39827
20
-62.8612
11
1.39827
21
-61.7207
0
LINE
8
Black
10
1.39827
20
-61.7207
11
3.42773
21
-61.7207
0
LINE
8
Black
10
3.42773
20
-61.7207
11
3.42773
21
-62.8612
0
LINE
8
Black
10
3.444
20
-15.148
11
2.144
21
-15.148
0
LINE
8
Black
10
2.144
20
-15.148
11
2.144
21
-14.448
0
LINE
8
Black
10
2.144
20
-14.448
11
3.444
21
-14.448
0
LINE
8
Black
10
3.444
20
-14.448
11
3.444
21
-15.148
0
LINE
8
Black
10
3.444
20
-17.048
11
2.144
21
-17.048
0
LINE
8
Black
10
2.144
20
-17.048
11
2.144
21
-16.348
0
LINE
8
Black
10
2.144
20
-16.348
11
3.444
21
-16.348
0
LINE
8
Black
10
3.444
20
-16.348
11
3.444
21
-17.048
0
LINE
8
Black
10
3.92684
20
-65.8914
11
1.42748
21
-65.8914
0
LINE
8
Black
10
1.42748
20
-65.8914
11
1.42748
21
-63.8924
0
LINE
8
Black
10
1.42748
20
-63.8924
11
3.92684
21
-63.8924
0
LINE
8
Black
10
3.92684
20
-63.8924
11
3.92684
21
-65.8914
0
LINE
8
Black
10
3.92684
20
-74.7916
11
1.42748
21
-74.7916
0
LINE
8
Black
10
1.42748
20
-74.7916
11
1.42748
21
-72.7926
0
LINE
8
Black
10
1.42748
20
-72.7926
11
3.92684
21
-72.7926
0
LINE
8
Black
10
3.92684
20
-72.7926
11
3.92684
21
-74.7916
0
LINE
8
Black
10
5.09
20
-19.496
11
4.44
21
-19.496
0
LINE
8
Black
10
4.44
20
-19.496
11
4.44
21
-18.436
0
LINE
8
Black
10
4.44
20
-18.436
11
5.09
21
-18.436
0
LINE
8
Black
10
5.09
20
-18.436
11
5.09
21
-19.496
0
LINE
8
Black
10
5.09
20
-21.696
11
4.44
21
-21.696
0
LINE
8
Black
10
4.44
20
-21.696
11
4.44
21
-20.636
0
LINE
8
Black
10
4.44
20
-20.636
11
5.09
21
-20.636
0
LINE
8
Black
10
5.09
20
-20.636
11
5.09
21
-21.696
0
LINE
8
Black
10
5.818
20
-76.416
11
3.618
21
-76.416
0
LINE
8
Black
10
3.618
20
-76.416
11
3.618
21
-75.216
0
LINE
8
Black
10
3.618
20
-75.216
11
5.818
21
-75.216
0
LINE
8
Black
10
5.818
20
-75.216
11
5.818
21
-76.416
0
LINE
8
Black
10
5.818
20
-91.916
11
3.618
21
-91.916
0
LINE
8
Black
10
3.618
20
-91.916
11
3.618
21
-90.716
0
LINE
8
Black
10
3.618
20
-90.716
11
5.818
21
-90.716
0
LINE
8
Black
10
5.818
20
-90.716
11
5.818
21
-91.916
0
LINE
8
Black
10
5.9817
20
-61.2254
11
3.48234
21
-61.2254
0
LINE
8
Black
10
3.48234
20
-61.2254
11
3.48234
21
-59.4246
0
LINE
8
Black
10
3.48234
20
-59.4246
11
5.9817
21
-59.4246
0
LINE
8
Black
10
5.9817
20
-59.4246
11
5.9817
21
-61.2254
0
LINE
8
Black
10
6.04
20
-21.696
11
5.39
21
-21.696
0
LINE
8
Black
10
5.39
20
-21.696
11
5.39
21
-20.636
0
LINE
8
Black
10
5.39
20
-20.636
11
6.04
21
-20.636
0
LINE
8
Black
10
6.04
20
-20.636
11
6.04
21
-21.696
0
LINE
8
Black
10
6.32841
20
-4.05384
11
4.32943
21
-4.05384
0
LINE
8
Black
10
4.32943
20
-4.05384
11
4.32943
21
-1.55448
0
LINE
8
Black
10
4.32943
20
-1.55448
11
6.32841
21
-1.55448
0
LINE
8
Black
10
6.32841
20
-1.55448
11
6.32841
21
-4.05384
0
LINE
8
Black
10
6.32841
20
-9.55294
11
4.32943
21
-9.55294
0
LINE
8
Black
10
4.32943
20
-9.55294
11
4.32943
21
-7.05358
0
LINE
8
Black
10
4.32943
20
-7.05358
11
6.32841
21
-7.05358
0
LINE
8
Black
10
6.32841
20
-7.05358
11
6.32841
21
-9.55294
0
LINE
8
Black
10
6.579
20
-37.262
11
5.029
21
-37.262
0
LINE
8
Black
10
5.029
20
-37.262
11
5.029
21
-35.962
0
LINE
8
Black
10
5.029
20
-35.962
11
6.579
21
-35.962
0
LINE
8
Black
10
6.579
20
-35.962
11
6.579
21
-37.262
0
LINE
8
Black
10
6.579
20
-41.762
11
5.029
21
-41.762
0
LINE
8
Black
10
5.029
20
-41.762
11
5.029
21
-40.462
0
LINE
8
Black
10
5.029
20
-40.462
11
6.579
21
-40.462
0
LINE
8
Black
10
6.579
20
-40.462
11
6.579
21
-41.762
0
LINE
8
Black
10
6.99
20
-19.496
11
6.34
21
-19.496
0
LINE
8
Black
10
6.34
20
-19.496
11
6.34
21
-18.436
0
LINE
8
Black
10
6.34
20
-18.436
11
6.99
21
-18.436
0
LINE
8
Black
10
6.99
20
-18.436
11
6.99
21
-19.496
0
LINE
8
Black
10
6.99
20
-21.696
11
6.34
21
-21.696
0
LINE
8
Black
10
6.34
20
-21.696
11
6.34
21
-20.636
0
LINE
8
Black
10
6.34
20
-20.636
11
6.99
21
-20.636
0
LINE
8
Black
10
6.99
20
-20.636
11
6.99
21
-21.696
0
LINE
8
Black
10
7.112
20
-52.3748
11
5.08
21
-52.3748
0
LINE
8
Black
10
5.08
20
-52.3748
11
5.08
21
-48.7172
0
LINE
8
Black
10
5.08
20
-48.7172
11
7.112
21
-48.7172
0
LINE
8
Black
10
7.112
20
-48.7172
11
7.112
21
-52.3748
0
LINE
8
Black
10
8.128
20
-29.0195
11
7.62
21
-29.0195
0
LINE
8
Black
10
7.62
20
-29.0195
11
7.62
21
-27.8765
0
LINE
8
Black
10
7.62
20
-27.8765
11
8.128
21
-27.8765
0
LINE
8
Black
10
8.128
20
-27.8765
11
8.128
21
-29.0195
0
LINE
8
Black
10
8.128
20
-35.3695
11
7.62
21
-35.3695
0
LINE
8
Black
10
7.62
20
-35.3695
11
7.62
21
-34.2265
0
LINE
8
Black
10
7.62
20
-34.2265
11
8.128
21
-34.2265
0
LINE
8
Black
10
8.128
20
-34.2265
11
8.128
21
-35.3695
0
LINE
8
Black
10
8.397
20
-15.275
11
7.097
21
-15.275
0
LINE
8
Black
10
7.097
20
-15.275
11
7.097
21
-14.575
0
LINE
8
Black
10
7.097
20
-14.575
11
8.397
21
-14.575
0
LINE
8
Black
10
8.397
20
-14.575
11
8.397
21
-15.275
0
LINE
8
Black
10
8.397
20
-17.175
11
7.097
21
-17.175
0
LINE
8
Black
10
7.097
20
-17.175
11
7.097
21
-16.475
0
LINE
8
Black
10
7.097
20
-16.475
11
8.397
21
-16.475
0
LINE
8
Black
10
8.397
20
-16.475
11
8.397
21
-17.175
0
LINE
8
Black
10
8.42899
20
-9.55294
11
7.92861
21
-9.55294
0
LINE
8
Black
10
7.92861
20
-9.55294
11
7.92861
21
-7.2517
0
LINE
8
Black
10
7.92861
20
-7.2517
11
8.42899
21
-7.2517
0
LINE
8
Black
10
8.42899
20
-7.2517
11
8.42899
21
-9.55294
0
LINE
8
Black
10
8.779
20
-24.168
11
7.779
21
-24.168
0
LINE
8
Black
10
7.779
20
-24.168
11
7.779
21
-22.568
0
LINE
8
Black
10
7.779
20
-22.568
11
8.779
21
-22.568
0
LINE
8
Black
10
8.779
20
-22.568
11
8.779
21
-24.168
0
LINE
8
Black
10
8.779
20
-26.454
11
7.779
21
-26.454
0
LINE
8
Black
10
7.779
20
-26.454
11
7.779
21
-24.854
0
LINE
8
Black
10
7.779
20
-24.854
11
8.779
21
-24.854
0
LINE
8
Black
10
8.779
20
-24.854
11
8.779
21
-26.454
0
LINE
8
Black
10
9.22909
20
-9.55294
11
8.72871
21
-9.55294
0
LINE
8
Black
10
8.72871
20
-9.55294
11
8.72871
21
-7.2517
0
LINE
8
Black
10
8.72871
20
-7.2517
11
9.22909
21
-7.2517
0
LINE
8
Black
10
9.22909
20
-7.2517
11
9.22909
21
-9.55294
0
LINE
8
Black
10
9.398
20
-29.0195
11
8.89
21
-29.0195
0
LINE
8
Black
10
8.89
20
-29.0195
11
8.89
21
-27.8765
0
LINE
8
Black
10
8.89
20
-27.8765
11
9.398
21
-27.8765
0
LINE
8
Black
10
9.398
20
-27.8765
11
9.398
21
-29.0195
0
LINE
8
Black
10
9.398
20
-35.3695
11
8.89
21
-35.3695
0
LINE
8
Black
10
8.89
20
-35.3695
11
8.89
21
-34.2265
0
LINE
8
Black
10
8.89
20
-34.2265
11
9.398
21
-34.2265
0
LINE
8
Black
10
9.398
20
-34.2265
11
9.398
21
-35.3695
0
LINE
8
Black
10
9.42594
20
-65.8914
11
6.92658
21
-65.8914
0
LINE
8
Black
10
6.92658
20
-65.8914
11
6.92658
21
-63.8924
0
LINE
8
Black
10
6.92658
20
-63.8924
11
9.42594
21
-63.8924
0
LINE
8
Black
10
9.42594
20
-63.8924
11
9.42594
21
-65.8914
0
LINE
8
Black
10
9.42594
20
-67.992
11
7.1247
21
-67.992
0
LINE
8
Black
10
7.1247
20
-67.992
11
7.1247
21
-67.4916
0
LINE
8
Black
10
7.1247
20
-67.4916
11
9.42594
21
-67.4916
0
LINE
8
Black
10
9.42594
20
-67.4916
11
9.42594
21
-67.992
0
LINE
8
Black
10
9.42594
20
-68.7921
11
7.1247
21
-68.7921
0
LINE
8
Black
10
7.1247
20
-68.7921
11
7.1247
21
-68.2917
0
LINE
8
Black
10
7.1247
20
-68.2917
11
9.42594
21
-68.2917
0
LINE
8
Black
10
9.42594
20
-68.2917
11
9.42594
21
-68.7921
0
LINE
8
Black
10
9.42594
20
-69.5922
11
7.1247
21
-69.5922
0
LINE
8
Black
10
7.1247
20
-69.5922
11
7.1247
21
-69.0918
0
LINE
8
Black
10
7.1247
20
-69.0918
11
9.42594
21
-69.0918
0
LINE
8
Black
10
9.42594
20
-69.0918
11
9.42594
21
-69.5922
0
LINE
8
Black
10
9.42594
20
-70.3923
11
7.1247
21
-70.3923
0
LINE
8
Black
10
7.1247
20
-70.3923
11
7.1247
21
-69.8919
0
LINE
8
Black
10
7.1247
20
-69.8919
11
9.42594
21
-69.8919
0
LINE
8
Black
10
9.42594
20
-69.8919
11
9.42594
21
-70.3923
0
LINE
8
Black
10
9.42594
20
-71.1924
11
7.1247
21
-71.1924
0
LINE
8
Black
10
7.1247
20
-71.1924
11
7.1247
21
-70.692
0
LINE
8
Black
10
7.1247
20
-70.692
11
9.42594
21
-70.692
0
LINE
8
Black
10
9.42594
20
-70.692
11
9.42594
21
-71.1924
0
LINE
8
Black
10
9.42594
20
-74.7916
11
6.92658
21
-74.7916
0
LINE
8
Black
10
6.92658
20
-74.7916
11
6.92658
21
-72.7926
0
LINE
8
Black
10
6.92658
20
-72.7926
11
9.42594
21
-72.7926
0
LINE
8
Black
10
9.42594
20
-72.7926
11
9.42594
21
-74.7916
0
LINE
8
Black
10
9.97966
20
-61.2254
11
7.4803
21
-61.2254
0
LINE
8
Black
10
7.4803
20
-61.2254
11
7.4803
21
-59.4246
0
LINE
8
Black
10
7.4803
20
-59.4246
11
9.97966
21
-59.4246
0
LINE
8
Black
10
9.97966
20
-59.4246
11
9.97966
21
-61.2254
0
LINE
8
Black
10
10.0292
20
-9.55294
11
9.52881
21
-9.55294
0
LINE
8
Black
10
9.52881
20
-9.55294
11
9.52881
21
-7.2517
0
LINE
8
Black
10
9.52881
20
-7.2517
11
10.0292
21
-7.2517
0
LINE
8
Black
10
10.0292
20
-7.2517
11
10.0292
21
-9.55294
0
LINE
8
Black
10
10.2845
20
-46.2166
11
8.33374
21
-46.2166
0
LINE
8
Black
10
8.33374
20
-46.2166
11
8.33374
21
-44.7154
0
LINE
8
Black
10
8.33374
20
-44.7154
11
10.2845
21
-44.7154
0
LINE
8
Black
10
10.2845
20
-44.7154
11
10.2845
21
-46.2166
0
LINE
8
Black
10
10.429
20
-15.275
11
9.129
21
-15.275
0
LINE
8
Black
10
9.129
20
-15.275
11
9.129
21
-14.575
0
LINE
8
Black
10
9.129
20
-14.575
11
10.429
21
-14.575
0
LINE
8
Black
10
10.429
20
-14.575
11
10.429
21
-15.275
0
LINE
8
Black
10
10.429
20
-17.175
11
9.129
21
-17.175
0
LINE
8
Black
10
9.129
20
-17.175
11
9.129
21
-16.475
0
LINE
8
Black
10
9.129
20
-16.475
11
10.429
21
-16.475
0
LINE
8
Black
10
10.429
20
-16.475
11
10.429
21
-17.175
0
LINE
8
Black
10
10.668
20
-29.0195
11
10.16
21
-29.0195
0
LINE
8
Black
10
10.16
20
-29.0195
11
10.16
21
-27.8765
0
LINE
8
Black
10
10.16
20
-27.8765
11
10.668
21
-27.8765
0
LINE
8
Black
10
10.668
20
-27.8765
11
10.668
21
-29.0195
0
LINE
8
Black
10
10.668
20
-35.3695
11
10.16
21
-35.3695
0
LINE
8
Black
10
10.16
20
-35.3695
11
10.16
21
-34.2265
0
LINE
8
Black
10
10.16
20
-34.2265
11
10.668
21
-34.2265
0
LINE
8
Black
10
10.668
20
-34.2265
11
10.668
21
-35.3695
0
LINE
8
Black
10
10.8293
20
-9.55294
11
10.3289
21
-9.55294
0
LINE
8
Black
10
10.3289
20
-9.55294
11
10.3289
21
-7.2517
0
LINE
8
Black
10
10.3289
20
-7.2517
11
10.8293
21
-7.2517
0
LINE
8
Black
10
10.8293
20
-7.2517
11
10.8293
21
-9.55294
0
LINE
8
Black
10
11.184
20
-59.807
11
10.184
21
-59.807
0
LINE
8
Black
10
10.184
20
-59.807
11
10.184
21
-58.557
0
LINE
8
Black
10
10.184
20
-58.557
11
11.184
21
-58.557
0
LINE
8
Black
10
11.184
20
-58.557
11
11.184
21
-59.807
0
LINE
8
Black
10
11.6294
20
-9.55294
11
11.129
21
-9.55294
0
LINE
8
Black
10
11.129
20
-9.55294
11
11.129
21
-7.2517
0
LINE
8
Black
10
11.129
20
-7.2517
11
11.6294
21
-7.2517
0
LINE
8
Black
10
11.6294
20
-7.2517
11
11.6294
21
-9.55294
0
LINE
8
Black
10
11.779
20
-24.168
11
10.779
21
-24.168
0
LINE
8
Black
10
10.779
20
-24.168
11
10.779
21
-22.568
0
LINE
8
Black
10
10.779
20
-22.568
11
11.779
21
-22.568
0
LINE
8
Black
10
11.779
20
-22.568
11
11.779
21
-24.168
0
LINE
8
Black
10
11.779
20
-26.454
11
10.779
21
-26.454
0
LINE
8
Black
10
10.779
20
-26.454
11
10.779
21
-24.854
0
LINE
8
Black
10
10.779
20
-24.854
11
11.779
21
-24.854
0
LINE
8
Black
10
11.779
20
-24.854
11
11.779
21
-26.454
0
LINE
8
Black
10
11.938
20
-29.0195
11
11.43
21
-29.0195
0
LINE
8
Black
10
11.43
20
-29.0195
11
11.43
21
-27.8765
0
LINE
8
Black
10
11.43
20
-27.8765
11
11.938
21
-27.8765
0
LINE
8
Black
10
11.938
20
-27.8765
11
11.938
21
-29.0195
0
LINE
8
Black
10
11.938
20
-35.3695
11
11.43
21
-35.3695
0
LINE
8
Black
10
11.43
20
-35.3695
11
11.43
21
-34.2265
0
LINE
8
Black
10
11.43
20
-34.2265
11
11.938
21
-34.2265
0
LINE
8
Black
10
11.938
20
-34.2265
11
11.938
21
-35.3695
0
LINE
8
Black
10
12.065
20
-67.2465
11
11.557
21
-67.2465
0
LINE
8
Black
10
11.557
20
-67.2465
11
11.557
21
-66.1035
0
LINE
8
Black
10
11.557
20
-66.1035
11
12.065
21
-66.1035
0
LINE
8
Black
10
12.065
20
-66.1035
11
12.065
21
-67.2465
0
LINE
8
Black
10
12.065
20
-73.5965
11
11.557
21
-73.5965
0
LINE
8
Black
10
11.557
20
-73.5965
11
11.557
21
-72.4535
0
LINE
8
Black
10
11.557
20
-72.4535
11
12.065
21
-72.4535
0
LINE
8
Black
10
12.065
20
-72.4535
11
12.065
21
-73.5965
0
LINE
8
Black
10
12.461
20
-15.275
11
11.161
21
-15.275
0
LINE
8
Black
10
11.161
20
-15.275
11
11.161
21
-14.575
0
LINE
8
Black
10
11.161
20
-14.575
11
12.461
21
-14.575
0
LINE
8
Black
10
12.461
20
-14.575
11
12.461
21
-15.275
0
LINE
8
Black
10
12.461
20
-17.175
11
11.161
21
-17.175
0
LINE
8
Black
10
11.161
20
-17.175
11
11.161
21
-16.475
0
LINE
8
Black
10
11.161
20
-16.475
11
12.461
21
-16.475
0
LINE
8
Black
10
12.461
20
-16.475
11
12.461
21
-17.175
0
LINE
8
Black
10
12.8397
20
-21.0934
11
10.3403
21
-21.0934
0
LINE
8
Black
10
10.3403
20
-21.0934
11
10.3403
21
-19.2926
0
LINE
8
Black
10
10.3403
20
-19.2926
11
12.8397
21
-19.2926
0
LINE
8
Black
10
12.8397
20
-19.2926
11
12.8397
21
-21.0934
0
LINE
8
Black
10
13.0023
20
-46.2166
11
11.0515
21
-46.2166
0
LINE
8
Black
10
11.0515
20
-46.2166
11
11.0515
21
-44.7154
0
LINE
8
Black
10
11.0515
20
-44.7154
11
13.0023
21
-44.7154
0
LINE
8
Black
10
13.0023
20
-44.7154
11
13.0023
21
-46.2166
0
LINE
8
Black
10
13.184
20
-59.807
11
12.184
21
-59.807
0
LINE
8
Black
10
12.184
20
-59.807
11
12.184
21
-58.557
0
LINE
8
Black
10
12.184
20
-58.557
11
13.184
21
-58.557
0
LINE
8
Black
10
13.184
20
-58.557
11
13.184
21
-59.807
0
LINE
8
Black
10
13.335
20
-67.2465
11
12.827
21
-67.2465
0
LINE
8
Black
10
12.827
20
-67.2465
11
12.827
21
-66.1035
0
LINE
8
Black
10
12.827
20
-66.1035
11
13.335
21
-66.1035
0
LINE
8
Black
10
13.335
20
-66.1035
11
13.335
21
-67.2465
0
LINE
8
Black
10
13.335
20
-73.5965
11
12.827
21
-73.5965
0
LINE
8
Black
10
12.827
20
-73.5965
11
12.827
21
-72.4535
0
LINE
8
Black
10
12.827
20
-72.4535
11
13.335
21
-72.4535
0
LINE
8
Black
10
13.335
20
-72.4535
11
13.335
21
-73.5965
0
LINE
8
Black
10
13.716
20
-48.768
11
11.684
21
-48.768
0
LINE
8
Black
10
11.684
20
-48.768
11
11.684
21
-47.752
0
LINE
8
Black
10
11.684
20
-47.752
11
13.716
21
-47.752
0
LINE
8
Black
10
13.716
20
-47.752
11
13.716
21
-48.768
0
LINE
8
Black
10
13.716
20
-51.054
11
11.684
21
-51.054
0
LINE
8
Black
10
11.684
20
-51.054
11
11.684
21
-50.038
0
LINE
8
Black
10
11.684
20
-50.038
11
13.716
21
-50.038
0
LINE
8
Black
10
13.716
20
-50.038
11
13.716
21
-51.054
0
LINE
8
Black
10
13.716
20
-53.34
11
11.684
21
-53.34
0
LINE
8
Black
10
11.684
20
-53.34
11
11.684
21
-52.324
0
LINE
8
Black
10
11.684
20
-52.324
11
13.716
21
-52.324
0
LINE
8
Black
10
13.716
20
-52.324
11
13.716
21
-53.34
0
LINE
8
Black
10
14.529
20
-37.262
11
12.979
21
-37.262
0
LINE
8
Black
10
12.979
20
-37.262
11
12.979
21
-35.962
0
LINE
8
Black
10
12.979
20
-35.962
11
14.529
21
-35.962
0
LINE
8
Black
10
14.529
20
-35.962
11
14.529
21
-37.262
0
LINE
8
Black
10
14.529
20
-41.762
11
12.979
21
-41.762
0
LINE
8
Black
10
12.979
20
-41.762
11
12.979
21
-40.462
0
LINE
8
Black
10
12.979
20
-40.462
11
14.529
21
-40.462
0
LINE
8
Black
10
14.529
20
-40.462
11
14.529
21
-41.762
0
LINE
8
Black
10
14.605
20
-67.2465
11
14.097
21
-67.2465
0
LINE
8
Black
10
14.097
20
-67.2465
11
14.097
21
-66.1035
0
LINE
8
Black
10
14.097
20
-66.1035
11
14.605
21
-66.1035
0
LINE
8
Black
10
14.605
20
-66.1035
11
14.605
21
-67.2465
0
LINE
8
Black
10
14.605
20
-73.5965
11
14.097
21
-73.5965
0
LINE
8
Black
10
14.097
20
-73.5965
11
14.097
21
-72.4535
0
LINE
8
Black
10
14.097
20
-72.4535
11
14.605
21
-72.4535
0
LINE
8
Black
10
14.605
20
-72.4535
11
14.605
21
-73.5965
0
LINE
8
Black
10
14.718
20
-76.266
11
13.318
21
-76.266
0
LINE
8
Black
10
13.318
20
-76.266
11
13.318
21
-75.166
0
LINE
8
Black
10
13.318
20
-75.166
11
14.718
21
-75.166
0
LINE
8
Black
10
14.718
20
-75.166
11
14.718
21
-76.266
0
LINE
8
Black
10
14.994
20
-59.807
11
13.994
21
-59.807
0
LINE
8
Black
10
13.994
20
-59.807
11
13.994
21
-58.557
0
LINE
8
Black
10
13.994
20
-58.557
11
14.994
21
-58.557
0
LINE
8
Black
10
14.994
20
-58.557
11
14.994
21
-59.807
0
LINE
8
Black
10
15.018
20
-91.216
11
13.618
21
-91.216
0
LINE
8
Black
10
13.618
20
-91.216
11
13.618
21
-89.616
0
LINE
8
Black
10
13.618
20
-89.616
11
15.018
21
-89.616
0
LINE
8
Black
10
15.018
20
-89.616
11
15.018
21
-91.216
0
LINE
8
Black
10
15.2286
20
-4.05384
11
13.2296
21
-4.05384
0
LINE
8
Black
10
13.2296
20
-4.05384
11
13.2296
21
-1.55448
0
LINE
8
Black
10
13.2296
20
-1.55448
11
15.2286
21
-1.55448
0
LINE
8
Black
10
15.2286
20
-1.55448
11
15.2286
21
-4.05384
0
LINE
8
Black
10
15.2286
20
-9.55294
11
13.2296
21
-9.55294
0
LINE
8
Black
10
13.2296
20
-9.55294
11
13.2296
21
-7.05358
0
LINE
8
Black
10
13.2296
20
-7.05358
11
15.2286
21
-7.05358
0
LINE
8
Black
10
15.2286
20
-7.05358
11
15.2286
21
-9.55294
0
LINE
8
Black
10
15.618
20
-77.316
11
14.018
21
-77.316
0
LINE
8
Black
10
14.018
20
-77.316
11
14.018
21
-76.616
0
LINE
8
Black
10
14.018
20
-76.616
11
15.618
21
-76.616
0
LINE
8
Black
10
15.618
20
-76.616
11
15.618
21
-77.316
0
LINE
8
Black
10
15.618
20
-78.416
11
14.018
21
-78.416
0
LINE
8
Black
10
14.018
20
-78.416
11
14.018
21
-77.716
0
LINE
8
Black
10
14.018
20
-77.716
11
15.618
21
-77.716
0
LINE
8
Black
10
15.618
20
-77.716
11
15.618
21
-78.416
0
LINE
8
Black
10
15.618
20
-79.516
11
14.018
21
-79.516
0
LINE
8
Black
10
14.018
20
-79.516
11
14.018
21
-78.816
0
LINE
8
Black
10
14.018
20
-78.816
11
15.618
21
-78.816
0
LINE
8
Black
10
15.618
20
-78.816
11
15.618
21
-79.516
0
LINE
8
Black
10
15.618
20
-80.616
11
14.018
21
-80.616
0
LINE
8
Black
10
14.018
20
-80.616
11
14.018
21
-79.916
0
LINE
8
Black
10
14.018
20
-79.916
11
15.618
21
-79.916
0
LINE
8
Black
10
15.618
20
-79.916
11
15.618
21
-80.616
0
LINE
8
Black
10
15.618
20
-81.716
11
14.018
21
-81.716
0
LINE
8
Black
10
14.018
20
-81.716
11
14.018
21
-81.016
0
LINE
8
Black
10
14.018
20
-81.016
11
15.618
21
-81.016
0
LINE
8
Black
10
15.618
20
-81.016
11
15.618
21
-81.716
0
LINE
8
Black
10
15.618
20
-82.816
11
14.018
21
-82.816
0
LINE
8
Black
10
14.018
20
-82.816
11
14.018
21
-82.116
0
LINE
8
Black
10
14.018
20
-82.116
11
15.618
21
-82.116
0
LINE
8
Black
10
15.618
20
-82.116
11
15.618
21
-82.816
0
LINE
8
Black
10
15.618
20
-83.916
11
14.018
21
-83.916
0
LINE
8
Black
10
14.018
20
-83.916
11
14.018
21
-83.216
0
LINE
8
Black
10
14.018
20
-83.216
11
15.618
21
-83.216
0
LINE
8
Black
10
15.618
20
-83.216
11
15.618
21
-83.916
0
LINE
8
Black
10
15.618
20
-85.016
11
14.018
21
-85.016
0
LINE
8
Black
10
14.018
20
-85.016
11
14.018
21
-84.316
0
LINE
8
Black
10
14.018
20
-84.316
11
15.618
21
-84.316
0
LINE
8
Black
10
15.618
20
-84.316
11
15.618
21
-85.016
0
LINE
8
Black
10
15.618
20
-86.116
11
14.018
21
-86.116
0
LINE
8
Black
10
14.018
20
-86.116
11
14.018
21
-85.416
0
LINE
8
Black
10
14.018
20
-85.416
11
15.618
21
-85.416
0
LINE
8
Black
10
15.618
20
-85.416
11
15.618
21
-86.116
0
LINE
8
Black
10
15.875
20
-67.2465
11
15.367
21
-67.2465
0
LINE
8
Black
10
15.367
20
-67.2465
11
15.367
21
-66.1035
0
LINE
8
Black
10
15.367
20
-66.1035
11
15.875
21
-66.1035
0
LINE
8
Black
10
15.875
20
-66.1035
11
15.875
21
-67.2465
0
LINE
8
Black
10
15.875
20
-73.5965
11
15.367
21
-73.5965
0
LINE
8
Black
10
15.367
20
-73.5965
11
15.367
21
-72.4535
0
LINE
8
Black
10
15.367
20
-72.4535
11
15.875
21
-72.4535
0
LINE
8
Black
10
15.875
20
-72.4535
11
15.875
21
-73.5965
0
LINE
8
Black
10
16.8377
20
-21.0934
11
14.3383
21
-21.0934
0
LINE
8
Black
10
14.3383
20
-21.0934
11
14.3383
21
-19.2926
0
LINE
8
Black
10
14.3383
20
-19.2926
11
16.8377
21
-19.2926
0
LINE
8
Black
10
16.8377
20
-19.2926
11
16.8377
21
-21.0934
0
LINE
8
Black
10
16.994
20
-59.807
11
15.994
21
-59.807
0
LINE
8
Black
10
15.994
20
-59.807
11
15.994
21
-58.557
0
LINE
8
Black
10
15.994
20
-58.557
11
16.994
21
-58.557
0
LINE
8
Black
10
16.994
20
-58.557
11
16.994
21
-59.807
0
LINE
8
Black
10
17.145
20
-67.2465
11
16.637
21
-67.2465
0
LINE
8
Black
10
16.637
20
-67.2465
11
16.637
21
-66.1035
0
LINE
8
Black
10
16.637
20
-66.1035
11
17.145
21
-66.1035
0
LINE
8
Black
10
17.145
20
-66.1035
11
17.145
21
-67.2465
0
LINE
8
Black
10
17.145
20
-73.5965
11
16.637
21
-73.5965
0
LINE
8
Black
10
16.637
20
-73.5965
11
16.637
21
-72.4535
0
LINE
8
Black
10
16.637
20
-72.4535
11
17.145
21
-72.4535
0
LINE
8
Black
10
17.145
20
-72.4535
11
17.145
21
-73.5965
0
LINE
8
Black
10
17.2517
20
-50.734
11
14.7523
21
-50.734
0
LINE
8
Black
10
14.7523
20
-50.734
11
14.7523
21
-48.7832
0
LINE
8
Black
10
14.7523
20
-48.7832
11
17.2517
21
-48.7832
0
LINE
8
Black
10
17.2517
20
-48.7832
11
17.2517
21
-50.734
0
LINE
8
Black
10
17.2517
20
-53.8328
11
14.7523
21
-53.8328
0
LINE
8
Black
10
14.7523
20
-53.8328
11
14.7523
21
-51.882
0
LINE
8
Black
10
14.7523
20
-51.882
11
17.2517
21
-51.882
0
LINE
8
Black
10
17.2517
20
-51.882
11
17.2517
21
-53.8328
0
LINE
8
Black
10
17.3634
20
-8.94842
11
16.1646
21
-8.94842
0
LINE
8
Black
10
16.1646
20
-8.94842
11
16.1646
21
-7.74954
0
LINE
8
Black
10
16.1646
20
-7.74954
11
17.3634
21
-7.74954
0
LINE
8
Black
10
17.3634
20
-7.74954
11
17.3634
21
-8.94842
0
LINE
8
Black
10
17.3634
20
-11.0465
11
16.1646
21
-11.0465
0
LINE
8
Black
10
16.1646
20
-11.0465
11
16.1646
21
-9.84758
0
LINE
8
Black
10
16.1646
20
-9.84758
11
17.3634
21
-9.84758
0
LINE
8
Black
10
17.3634
20
-9.84758
11
17.3634
21
-11.0465
0
LINE
8
Black
10
17.414
20
-15.148
11
16.114
21
-15.148
0
LINE
8
Black
10
16.114
20
-15.148
11
16.114
21
-14.448
0
LINE
8
Black
10
16.114
20
-14.448
11
17.414
21
-14.448
0
LINE
8
Black
10
17.414
20
-14.448
11
17.414
21
-15.148
0
LINE
8
Black
10
17.414
20
-17.048
11
16.114
21
-17.048
0
LINE
8
Black
10
16.114
20
-17.048
11
16.114
21
-16.348
0
LINE
8
Black
10
16.114
20
-16.348
11
17.414
21
-16.348
0
LINE
8
Black
10
17.414
20
-16.348
11
17.414
21
-17.048
0
LINE
8
Black
10
17.643
20
-80.78
11
16.393
21
-80.78
0
LINE
8
Black
10
16.393
20
-80.78
11
16.393
21
-79.78
0
LINE
8
Black
10
16.393
20
-79.78
11
17.643
21
-79.78
0
LINE
8
Black
10
17.643
20
-79.78
11
17.643
21
-80.78
0
LINE
8
Black
10
17.643
20
-82.78
11
16.393
21
-82.78
0
LINE
8
Black
10
16.393
20
-82.78
11
16.393
21
-81.78
0
LINE
8
Black
10
16.393
20
-81.78
11
17.643
21
-81.78
0
LINE
8
Black
10
17.643
20
-81.78
11
17.643
21
-82.78
0
LINE
8
Black
10
18.415
20
-67.2465
11
17.907
21
-67.2465
0
LINE
8
Black
10
17.907
20
-67.2465
11
17.907
21
-66.1035
0
LINE
8
Black
10
17.907
20
-66.1035
11
18.415
21
-66.1035
0
LINE
8
Black
10
18.415
20
-66.1035
11
18.415
21
-67.2465
0
LINE
8
Black
10
18.415
20
-73.5965
11
17.907
21
-73.5965
0
LINE
8
Black
10
17.907
20
-73.5965
11
17.907
21
-72.4535
0
LINE
8
Black
10
17.907
20
-72.4535
11
18.415
21
-72.4535
0
LINE
8
Black
10
18.415
20
-72.4535
11
18.415
21
-73.5965
0
LINE
8
Black
10
19.685
20
-67.2465
11
19.177
21
-67.2465
0
LINE
8
Black
10
19.177
20
-67.2465
11
19.177
21
-66.1035
0
LINE
8
Black
10
19.177
20
-66.1035
11
19.685
21
-66.1035
0
LINE
8
Black
10
19.685
20
-66.1035
11
19.685
21
-67.2465
0
LINE
8
Black
10
19.685
20
-73.5965
11
19.177
21
-73.5965
0
LINE
8
Black
10
19.177
20
-73.5965
11
19.177
21
-72.4535
0
LINE
8
Black
10
19.177
20
-72.4535
11
19.685
21
-72.4535
0
LINE
8
Black
10
19.685
20
-72.4535
11
19.685
21
-73.5965
0
LINE
8
Black
10
20.355
20
-76.342
11
19.655
21
-76.342
0
LINE
8
Black
10
19.655
20
-76.342
11
19.655
21
-75.042
0
LINE
8
Black
10
19.655
20
-75.042
11
20.355
21
-75.042
0
LINE
8
Black
10
20.355
20
-75.042
11
20.355
21
-76.342
0
LINE
8
Black
10
20.955
20
-67.2465
11
20.447
21
-67.2465
0
LINE
8
Black
10
20.447
20
-67.2465
11
20.447
21
-66.1035
0
LINE
8
Black
10
20.447
20
-66.1035
11
20.955
21
-66.1035
0
LINE
8
Black
10
20.955
20
-66.1035
11
20.955
21
-67.2465
0
LINE
8
Black
10
20.955
20
-73.5965
11
20.447
21
-73.5965
0
LINE
8
Black
10
20.447
20
-73.5965
11
20.447
21
-72.4535
0
LINE
8
Black
10
20.447
20
-72.4535
11
20.955
21
-72.4535
0
LINE
8
Black
10
20.955
20
-72.4535
11
20.955
21
-73.5965
0
LINE
8
Black
10
20.955
20
-78.4225
11
20.447
21
-78.4225
0
LINE
8
Black
10
20.447
20
-78.4225
11
20.447
21
-77.2795
0
LINE
8
Black
10
20.447
20
-77.2795
11
20.955
21
-77.2795
0
LINE
8
Black
10
20.955
20
-77.2795
11
20.955
21
-78.4225
0
LINE
8
Black
10
20.955
20
-84.7725
11
20.447
21
-84.7725
0
LINE
8
Black
10
20.447
20
-84.7725
11
20.447
21
-83.6295
0
LINE
8
Black
10
20.447
20
-83.6295
11
20.955
21
-83.6295
0
LINE
8
Black
10
20.955
20
-83.6295
11
20.955
21
-84.7725
0
LINE
8
Black
10
22.225
20
-78.4225
11
21.717
21
-78.4225
0
LINE
8
Black
10
21.717
20
-78.4225
11
21.717
21
-77.2795
0
LINE
8
Black
10
21.717
20
-77.2795
11
22.225
21
-77.2795
0
LINE
8
Black
10
22.225
20
-77.2795
11
22.225
21
-78.4225
0
LINE
8
Black
10
22.225
20
-84.7725
11
21.717
21
-84.7725
0
LINE
8
Black
10
21.717
20
-84.7725
11
21.717
21
-83.6295
0
LINE
8
Black
10
21.717
20
-83.6295
11
22.225
21
-83.6295
0
LINE
8
Black
10
22.225
20
-83.6295
11
22.225
21
-84.7725
0
LINE
8
Black
10
22.255
20
-76.342
11
21.555
21
-76.342
0
LINE
8
Black
10
21.555
20
-76.342
11
21.555
21
-75.042
0
LINE
8
Black
10
21.555
20
-75.042
11
22.255
21
-75.042
0
LINE
8
Black
10
22.255
20
-75.042
11
22.255
21
-76.342
0
LINE
8
Black
10
23.022
20
-60.086
11
22.322
21
-60.086
0
LINE
8
Black
10
22.322
20
-60.086
11
22.322
21
-58.786
0
LINE
8
Black
10
22.322
20
-58.786
11
23.022
21
-58.786
0
LINE
8
Black
10
23.022
20
-58.786
11
23.022
21
-60.086
0
LINE
8
Black
10
23.022
20
-62.626
11
22.322
21
-62.626
0
LINE
8
Black
10
22.322
20
-62.626
11
22.322
21
-61.326
0
LINE
8
Black
10
22.322
20
-61.326
11
23.022
21
-61.326
0
LINE
8
Black
10
23.022
20
-61.326
11
23.022
21
-62.626
0
LINE
8
Black
10
23.022
20
-65.166
11
22.322
21
-65.166
0
LINE
8
Black
10
22.322
20
-65.166
11
22.322
21
-63.866
0
LINE
8
Black
10
22.322
20
-63.866
11
23.022
21
-63.866
0
LINE
8
Black
10
23.022
20
-63.866
11
23.022
21
-65.166
0
LINE
8
Black
10
23.022
20
-67.198
11
22.322
21
-67.198
0
LINE
8
Black
10
22.322
20
-67.198
11
22.322
21
-65.898
0
LINE
8
Black
10
22.322
20
-65.898
11
23.022
21
-65.898
0
LINE
8
Black
10
23.022
20
-65.898
11
23.022
21
-67.198
0
LINE
8
Black
10
23.022
20
-69.23
11
22.322
21
-69.23
0
LINE
8
Black
10
22.322
20
-69.23
11
22.322
21
-67.93
0
LINE
8
Black
10
22.322
20
-67.93
11
23.022
21
-67.93
0
LINE
8
Black
10
23.022
20
-67.93
11
23.022
21
-69.23
0
LINE
8
Black
10
23.122
20
-73.523
11
22.122
21
-73.523
0
LINE
8
Black
10
22.122
20
-73.523
11
22.122
21
-72.273
0
LINE
8
Black
10
22.122
20
-72.273
11
23.122
21
-72.273
0
LINE
8
Black
10
23.122
20
-72.273
11
23.122
21
-73.523
0
LINE
8
Black
10
23.495
20
-78.4225
11
22.987
21
-78.4225
0
LINE
8
Black
10
22.987
20
-78.4225
11
22.987
21
-77.2795
0
LINE
8
Black
10
22.987
20
-77.2795
11
23.495
21
-77.2795
0
LINE
8
Black
10
23.495
20
-77.2795
11
23.495
21
-78.4225
0
LINE
8
Black
10
23.495
20
-84.7725
11
22.987
21
-84.7725
0
LINE
8
Black
10
22.987
20
-84.7725
11
22.987
21
-83.6295
0
LINE
8
Black
10
22.987
20
-83.6295
11
23.495
21
-83.6295
0
LINE
8
Black
10
23.495
20
-83.6295
11
23.495
21
-84.7725
0
LINE
8
Black
10
24.765
20
-78.4225
11
24.257
21
-78.4225
0
LINE
8
Black
10
24.257
20
-78.4225
11
24.257
21
-77.2795
0
LINE
8
Black
10
24.257
20
-77.2795
11
24.765
21
-77.2795
0
LINE
8
Black
10
24.765
20
-77.2795
11
24.765
21
-78.4225
0
LINE
8
Black
10
24.765
20
-84.7725
11
24.257
21
-84.7725
0
LINE
8
Black
10
24.257
20
-84.7725
11
24.257
21
-83.6295
0
LINE
8
Black
10
24.257
20
-83.6295
11
24.765
21
-83.6295
0
LINE
8
Black
10
24.765
20
-83.6295
11
24.765
21
-84.7725
0
LINE
8
Black
10
24.922
20
-60.086
11
24.222
21
-60.086
0
LINE
8
Black
10
24.222
20
-60.086
11
24.222
21
-58.786
0
LINE
8
Black
10
24.222
20
-58.786
11
24.922
21
-58.786
0
LINE
8
Black
10
24.922
20
-58.786
11
24.922
21
-60.086
0
LINE
8
Black
10
24.922
20
-62.626
11
24.222
21
-62.626
0
LINE
8
Black
10
24.222
20
-62.626
11
24.222
21
-61.326
0
LINE
8
Black
10
24.222
20
-61.326
11
24.922
21
-61.326
0
LINE
8
Black
10
24.922
20
-61.326
11
24.922
21
-62.626
0
LINE
8
Black
10
24.922
20
-65.166
11
24.222
21
-65.166
0
LINE
8
Black
10
24.222
20
-65.166
11
24.222
21
-63.866
0
LINE
8
Black
10
24.222
20
-63.866
11
24.922
21
-63.866
0
LINE
8
Black
10
24.922
20
-63.866
11
24.922
21
-65.166
0
LINE
8
Black
10
24.922
20
-67.198
11
24.222
21
-67.198
0
LINE
8
Black
10
24.222
20
-67.198
11
24.222
21
-65.898
0
LINE
8
Black
10
24.222
20
-65.898
11
24.922
21
-65.898
0
LINE
8
Black
10
24.922
20
-65.898
11
24.922
21
-67.198
0
LINE
8
Black
10
24.922
20
-69.23
11
24.222
21
-69.23
0
LINE
8
Black
10
24.222
20
-69.23
11
24.222
21
-67.93
0
LINE
8
Black
10
24.222
20
-67.93
11
24.922
21
-67.93
0
LINE
8
Black
10
24.922
20
-67.93
11
24.922
21
-69.23
0
LINE
8
Black
10
25.122
20
-73.523
11
24.122
21
-73.523
0
LINE
8
Black
10
24.122
20
-73.523
11
24.122
21
-72.273
0
LINE
8
Black
10
24.122
20
-72.273
11
25.122
21
-72.273
0
LINE
8
Black
10
25.122
20
-72.273
11
25.122
21
-73.523
0
LINE
8
Black
10
26.035
20
-78.4225
11
25.527
21
-78.4225
0
LINE
8
Black
10
25.527
20
-78.4225
11
25.527
21
-77.2795
0
LINE
8
Black
10
25.527
20
-77.2795
11
26.035
21
-77.2795
0
LINE
8
Black
10
26.035
20
-77.2795
11
26.035
21
-78.4225
0
LINE
8
Black
10
26.035
20
-84.7725
11
25.527
21
-84.7725
0
LINE
8
Black
10
25.527
20
-84.7725
11
25.527
21
-83.6295
0
LINE
8
Black
10
25.527
20
-83.6295
11
26.035
21
-83.6295
0
LINE
8
Black
10
26.035
20
-83.6295
11
26.035
21
-84.7725
0
LINE
8
Black
10
26.7284
20
-60.0354
11
25.5295
21
-60.0354
0
LINE
8
Black
10
25.5295
20
-60.0354
11
25.5295
21
-58.8366
0
LINE
8
Black
10
25.5295
20
-58.8366
11
26.7284
21
-58.8366
0
LINE
8
Black
10
26.7284
20
-58.8366
11
26.7284
21
-60.0354
0
LINE
8
Black
10
26.7284
20
-62.5754
11
25.5295
21
-62.5754
0
LINE
8
Black
10
25.5295
20
-62.5754
11
25.5295
21
-61.3766
0
LINE
8
Black
10
25.5295
20
-61.3766
11
26.7284
21
-61.3766
0
LINE
8
Black
10
26.7284
20
-61.3766
11
26.7284
21
-62.5754
0
LINE
8
Black
10
26.7284
20
-65.1154
11
25.5295
21
-65.1154
0
LINE
8
Black
10
25.5295
20
-65.1154
11
25.5295
21
-63.9166
0
LINE
8
Black
10
25.5295
20
-63.9166
11
26.7284
21
-63.9166
0
LINE
8
Black
10
26.7284
20
-63.9166
11
26.7284
21
-65.1154
0
LINE
8
Black
10
27.305
20
-78.4225
11
26.797
21
-78.4225
0
LINE
8
Black
10
26.797
20
-78.4225
11
26.797
21
-77.2795
0
LINE
8
Black
10
26.797
20
-77.2795
11
27.305
21
-77.2795
0
LINE
8
Black
10
27.305
20
-77.2795
11
27.305
21
-78.4225
0
LINE
8
Black
10
27.305
20
-84.7725
11
26.797
21
-84.7725
0
LINE
8
Black
10
26.797
20
-84.7725
11
26.797
21
-83.6295
0
LINE
8
Black
10
26.797
20
-83.6295
11
27.305
21
-83.6295
0
LINE
8
Black
10
27.305
20
-83.6295
11
27.305
21
-84.7725
0
LINE
8
Black
10
28.575
20
-78.4225
11
28.067
21
-78.4225
0
LINE
8
Black
10
28.067
20
-78.4225
11
28.067
21
-77.2795
0
LINE
8
Black
10
28.067
20
-77.2795
11
28.575
21
-77.2795
0
LINE
8
Black
10
28.575
20
-77.2795
11
28.575
21
-78.4225
0
LINE
8
Black
10
28.575
20
-84.7725
11
28.067
21
-84.7725
0
LINE
8
Black
10
28.067
20
-84.7725
11
28.067
21
-83.6295
0
LINE
8
Black
10
28.067
20
-83.6295
11
28.575
21
-83.6295
0
LINE
8
Black
10
28.575
20
-83.6295
11
28.575
21
-84.7725
0
LINE
8
Black
10
28.7934
20
-12.6314
11
27.5946
21
-12.6314
0
LINE
8
Black
10
27.5946
20
-12.6314
11
27.5946
21
-11.4325
0
LINE
8
Black
10
27.5946
20
-11.4325
11
28.7934
21
-11.4325
0
LINE
8
Black
10
28.7934
20
-11.4325
11
28.7934
21
-12.6314
0
LINE
8
Black
10
28.7934
20
-14.7295
11
27.5946
21
-14.7295
0
LINE
8
Black
10
27.5946
20
-14.7295
11
27.5946
21
-13.5306
0
LINE
8
Black
10
27.5946
20
-13.5306
11
28.7934
21
-13.5306
0
LINE
8
Black
10
28.7934
20
-13.5306
11
28.7934
21
-14.7295
0
LINE
8
Black
10
28.8265
20
-60.0354
11
27.6276
21
-60.0354
0
LINE
8
Black
10
27.6276
20
-60.0354
11
27.6276
21
-58.8366
0
LINE
8
Black
10
27.6276
20
-58.8366
11
28.8265
21
-58.8366
0
LINE
8
Black
10
28.8265
20
-58.8366
11
28.8265
21
-60.0354
0
LINE
8
Black
10
28.8265
20
-62.5754
11
27.6276
21
-62.5754
0
LINE
8
Black
10
27.6276
20
-62.5754
11
27.6276
21
-61.3766
0
LINE
8
Black
10
27.6276
20
-61.3766
11
28.8265
21
-61.3766
0
LINE
8
Black
10
28.8265
20
-61.3766
11
28.8265
21
-62.5754
0
LINE
8
Black
10
28.8265
20
-65.1154
11
27.6276
21
-65.1154
0
LINE
8
Black
10
27.6276
20
-65.1154
11
27.6276
21
-63.9166
0
LINE
8
Black
10
27.6276
20
-63.9166
11
28.8265
21
-63.9166
0
LINE
8
Black
10
28.8265
20
-63.9166
11
28.8265
21
-65.1154
0
LINE
8
Black
10
28.844
20
-39.151
11
27.544
21
-39.151
0
LINE
8
Black
10
27.544
20
-39.151
11
27.544
21
-38.451
0
LINE
8
Black
10
27.544
20
-38.451
11
28.844
21
-38.451
0
LINE
8
Black
10
28.844
20
-38.451
11
28.844
21
-39.151
0
LINE
8
Black
10
28.844
20
-41.051
11
27.544
21
-41.051
0
LINE
8
Black
10
27.544
20
-41.051
11
27.544
21
-40.351
0
LINE
8
Black
10
27.544
20
-40.351
11
28.844
21
-40.351
0
LINE
8
Black
10
28.844
20
-40.351
11
28.844
21
-41.051
0
LINE
8
Black
10
29.845
20
-78.4225
11
29.337
21
-78.4225
0
LINE
8
Black
10
29.337
20
-78.4225
11
29.337
21
-77.2795
0
LINE
8
Black
10
29.337
20
-77.2795
11
29.845
21
-77.2795
0
LINE
8
Black
10
29.845
20
-77.2795
11
29.845
21
-78.4225
0
LINE
8
Black
10
29.845
20
-84.7725
11
29.337
21
-84.7725
0
LINE
8
Black
10
29.337
20
-84.7725
11
29.337
21
-83.6295
0
LINE
8
Black
10
29.337
20
-83.6295
11
29.845
21
-83.6295
0
LINE
8
Black
10
29.845
20
-83.6295
11
29.845
21
-84.7725
0
LINE
8
Black
10
31.4033
20
-39.201
11
30.6032
21
-39.201
0
LINE
8
Black
10
30.6032
20
-39.201
11
30.6032
21
-38.401
0
LINE
8
Black
10
30.6032
20
-38.401
11
31.4033
21
-38.401
0
LINE
8
Black
10
31.4033
20
-38.401
11
31.4033
21
-39.201
0
LINE
8
Black
10
31.4033
20
-41.1011
11
30.6032
21
-41.1011
0
LINE
8
Black
10
30.6032
20
-41.1011
11
30.6032
21
-40.301
0
LINE
8
Black
10
30.6032
20
-40.301
11
31.4033
21
-40.301
0
LINE
8
Black
10
31.4033
20
-40.301
11
31.4033
21
-41.1011
0
LINE
8
Black
10
31.9761
20
-3.3909
11
31.9761
21
-4.9911
0
LINE
8
Black
10
31.9761
20
-4.9911
11
28.4759
21
-5.38988
0
LINE
8
Black
10
28.4759
20
-5.38988
11
28.4759
21
-2.99212
0
LINE
8
Black
10
28.4759
20
-2.99212
11
31.9761
21
-3.3909
0
LINE
8
Black
10
31.9761
20
-6.5659
11
31.9761
21
-8.1661
0
LINE
8
Black
10
31.9761
20
-8.1661
11
28.4759
21
-8.56488
0
LINE
8
Black
10
28.4759
20
-8.56488
11
28.4759
21
-6.16712
0
LINE
8
Black
10
28.4759
20
-6.16712
11
31.9761
21
-6.5659
0
LINE
8
Black
10
31.9761
20
-17.9959
11
31.9761
21
-19.5961
0
LINE
8
Black
10
31.9761
20
-19.5961
11
28.4759
21
-19.9949
0
LINE
8
Black
10
28.4759
20
-19.9949
11
28.4759
21
-17.5971
0
LINE
8
Black
10
28.4759
20
-17.5971
11
31.9761
21
-17.9959
0
LINE
8
Black
10
31.9761
20
-21.1709
11
31.9761
21
-22.7711
0
LINE
8
Black
10
31.9761
20
-22.7711
11
28.4759
21
-23.1699
0
LINE
8
Black
10
28.4759
20
-23.1699
11
28.4759
21
-20.7721
0
LINE
8
Black
10
28.4759
20
-20.7721
11
31.9761
21
-21.1709
0
LINE
8
Black
10
32.293
20
-85.359
11
31.593
21
-85.359
0
LINE
8
Black
10
31.593
20
-85.359
11
31.593
21
-84.059
0
LINE
8
Black
10
31.593
20
-84.059
11
32.293
21
-84.059
0
LINE
8
Black
10
32.293
20
-84.059
11
32.293
21
-85.359
0
LINE
8
Black
10
32.293
20
-87.264
11
31.593
21
-87.264
0
LINE
8
Black
10
31.593
20
-87.264
11
31.593
21
-85.964
0
LINE
8
Black
10
31.593
20
-85.964
11
32.293
21
-85.964
0
LINE
8
Black
10
32.293
20
-85.964
11
32.293
21
-87.264
0
LINE
8
Black
10
32.375
20
-69.096
11
31.125
21
-69.096
0
LINE
8
Black
10
31.125
20
-69.096
11
31.125
21
-68.096
0
LINE
8
Black
10
31.125
20
-68.096
11
32.375
21
-68.096
0
LINE
8
Black
10
32.375
20
-68.096
11
32.375
21
-69.096
0
LINE
8
Black
10
32.375
20
-71.096
11
31.125
21
-71.096
0
LINE
8
Black
10
31.125
20
-71.096
11
31.125
21
-70.096
0
LINE
8
Black
10
31.125
20
-70.096
11
32.375
21
-70.096
0
LINE
8
Black
10
32.375
20
-70.096
11
32.375
21
-71.096
0
LINE
8
Black
10
32.614
20
-11.481
11
31.064
21
-11.481
0
LINE
8
Black
10
31.064
20
-11.481
11
31.064
21
-10.181
0
LINE
8
Black
10
31.064
20
-10.181
11
32.614
21
-10.181
0
LINE
8
Black
10
32.614
20
-10.181
11
32.614
21
-11.481
0
LINE
8
Black
10
32.614
20
-15.981
11
31.064
21
-15.981
0
LINE
8
Black
10
31.064
20
-15.981
11
31.064
21
-14.681
0
LINE
8
Black
10
31.064
20
-14.681
11
32.614
21
-14.681
0
LINE
8
Black
10
32.614
20
-14.681
11
32.614
21
-15.981
0
LINE
8
Black
10
33.155
20
-55.87
11
32.155
21
-55.87
0
LINE
8
Black
10
32.155
20
-55.87
11
32.155
21
-54.62
0
LINE
8
Black
10
32.155
20
-54.62
11
33.155
21
-54.62
0
LINE
8
Black
10
33.155
20
-54.62
11
33.155
21
-55.87
0
LINE
8
Black
10
33.4023
20
-40.151
11
32.6022
21
-40.151
0
LINE
8
Black
10
32.6022
20
-40.151
11
32.6022
21
-39.3509
0
LINE
8
Black
10
32.6022
20
-39.3509
11
33.4023
21
-39.3509
0
LINE
8
Black
10
33.4023
20
-39.3509
11
33.4023
21
-40.151
0
LINE
8
Black
10
34.193
20
-85.359
11
33.493
21
-85.359
0
LINE
8
Black
10
33.493
20
-85.359
11
33.493
21
-84.059
0
LINE
8
Black
10
33.493
20
-84.059
11
34.193
21
-84.059
0
LINE
8
Black
10
34.193
20
-84.059
11
34.193
21
-85.359
0
LINE
8
Black
10
34.193
20
-87.264
11
33.493
21
-87.264
0
LINE
8
Black
10
33.493
20
-87.264
11
33.493
21
-85.964
0
LINE
8
Black
10
33.493
20
-85.964
11
34.193
21
-85.964
0
LINE
8
Black
10
34.193
20
-85.964
11
34.193
21
-87.264
0
LINE
8
Black
10
35.155
20
-55.87
11
34.155
21
-55.87
0
LINE
8
Black
10
34.155
20
-55.87
11
34.155
21
-54.62
0
LINE
8
Black
10
34.155
20
-54.62
11
35.155
21
-54.62
0
LINE
8
Black
10
35.155
20
-54.62
11
35.155
21
-55.87
0
LINE
8
Black
10
35.595
20
-81.676
11
34.895
21
-81.676
0
LINE
8
Black
10
34.895
20
-81.676
11
34.895
21
-80.376
0
LINE
8
Black
10
34.895
20
-80.376
11
35.595
21
-80.376
0
LINE
8
Black
10
35.595
20
-80.376
11
35.595
21
-81.676
0
LINE
8
Black
10
35.595
20
-87.264
11
34.895
21
-87.264
0
LINE
8
Black
10
34.895
20
-87.264
11
34.895
21
-85.964
0
LINE
8
Black
10
34.895
20
-85.964
11
35.595
21
-85.964
0
LINE
8
Black
10
35.595
20
-85.964
11
35.595
21
-87.264
0
LINE
8
Black
10
35.5968
20
-84.347
11
34.7967
21
-84.347
0
LINE
8
Black
10
34.7967
20
-84.347
11
34.7967
21
-83.5469
0
LINE
8
Black
10
34.7967
20
-83.5469
11
35.5968
21
-83.5469
0
LINE
8
Black
10
35.5968
20
-83.5469
11
35.5968
21
-84.347
0
LINE
8
Black
10
35.69
20
-65.871
11
34.19
21
-65.871
0
LINE
8
Black
10
34.19
20
-65.871
11
34.19
21
-65.321
0
LINE
8
Black
10
34.19
20
-65.321
11
35.69
21
-65.321
0
LINE
8
Black
10
35.69
20
-65.321
11
35.69
21
-65.871
0
LINE
8
Black
10
35.69
20
-66.671
11
34.19
21
-66.671
0
LINE
8
Black
10
34.19
20
-66.671
11
34.19
21
-66.121
0
LINE
8
Black
10
34.19
20
-66.121
11
35.69
21
-66.121
0
LINE
8
Black
10
35.69
20
-66.121
11
35.69
21
-66.671
0
LINE
8
Black
10
35.69
20
-67.471
11
34.19
21
-67.471
0
LINE
8
Black
10
34.19
20
-67.471
11
34.19
21
-66.921
0
LINE
8
Black
10
34.19
20
-66.921
11
35.69
21
-66.921
0
LINE
8
Black
10
35.69
20
-66.921
11
35.69
21
-67.471
0
LINE
8
Black
10
35.69
20
-68.271
11
34.19
21
-68.271
0
LINE
8
Black
10
34.19
20
-68.271
11
34.19
21
-67.721
0
LINE
8
Black
10
34.19
20
-67.721
11
35.69
21
-67.721
0
LINE
8
Black
10
35.69
20
-67.721
11
35.69
21
-68.271
0
LINE
8
Black
10
35.69
20
-69.071
11
34.19
21
-69.071
0
LINE
8
Black
10
34.19
20
-69.071
11
34.19
21
-68.521
0
LINE
8
Black
10
34.19
20
-68.521
11
35.69
21
-68.521
0
LINE
8
Black
10
35.69
20
-68.521
11
35.69
21
-69.071
0
LINE
8
Black
10
35.69
20
-69.871
11
34.19
21
-69.871
0
LINE
8
Black
10
34.19
20
-69.871
11
34.19
21
-69.321
0
LINE
8
Black
10
34.19
20
-69.321
11
35.69
21
-69.321
0
LINE
8
Black
10
35.69
20
-69.321
11
35.69
21
-69.871
0
LINE
8
Black
10
35.69
20
-70.671
11
34.19
21
-70.671
0
LINE
8
Black
10
34.19
20
-70.671
11
34.19
21
-70.121
0
LINE
8
Black
10
34.19
20
-70.121
11
35.69
21
-70.121
0
LINE
8
Black
10
35.69
20
-70.121
11
35.69
21
-70.671
0
LINE
8
Black
10
35.69
20
-71.471
11
34.19
21
-71.471
0
LINE
8
Black
10
34.19
20
-71.471
11
34.19
21
-70.921
0
LINE
8
Black
10
34.19
20
-70.921
11
35.69
21
-70.921
0
LINE
8
Black
10
35.69
20
-70.921
11
35.69
21
-71.471
0
LINE
8
Black
10
35.69
20
-72.271
11
34.19
21
-72.271
0
LINE
8
Black
10
34.19
20
-72.271
11
34.19
21
-71.721
0
LINE
8
Black
10
34.19
20
-71.721
11
35.69
21
-71.721
0
LINE
8
Black
10
35.69
20
-71.721
11
35.69
21
-72.271
0
LINE
8
Black
10
35.69
20
-73.071
11
34.19
21
-73.071
0
LINE
8
Black
10
34.19
20
-73.071
11
34.19
21
-72.521
0
LINE
8
Black
10
34.19
20
-72.521
11
35.69
21
-72.521
0
LINE
8
Black
10
35.69
20
-72.521
11
35.69
21
-73.071
0
LINE
8
Black
10
35.69
20
-73.871
11
34.19
21
-73.871
0
LINE
8
Black
10
34.19
20
-73.871
11
34.19
21
-73.321
0
LINE
8
Black
10
34.19
20
-73.321
11
35.69
21
-73.321
0
LINE
8
Black
10
35.69
20
-73.321
11
35.69
21
-73.871
0
LINE
8
Black
10
36.8021
20
-5.38988
11
33.3019
21
-4.9911
0
LINE
8
Black
10
33.3019
20
-4.9911
11
33.3019
21
-3.3909
0
LINE
8
Black
10
33.3019
20
-3.3909
11
36.8021
21
-2.99212
0
LINE
8
Black
10
36.8021
20
-2.99212
11
36.8021
21
-5.38988
0
LINE
8
Black
10
36.8021
20
-8.56488
11
33.3019
21
-8.1661
0
LINE
8
Black
10
33.3019
20
-8.1661
11
33.3019
21
-6.5659
0
LINE
8
Black
10
33.3019
20
-6.5659
11
36.8021
21
-6.16712
0
LINE
8
Black
10
36.8021
20
-6.16712
11
36.8021
21
-8.56488
0
LINE
8
Black
10
36.8021
20
-19.9949
11
33.3019
21
-19.5961
0
LINE
8
Black
10
33.3019
20
-19.5961
11
33.3019
21
-17.9959
0
LINE
8
Black
10
33.3019
20
-17.9959
11
36.8021
21
-17.5971
0
LINE
8
Black
10
36.8021
20
-17.5971
11
36.8021
21
-19.9949
0
LINE
8
Black
10
36.8021
20
-23.1699
11
33.3019
21
-22.7711
0
LINE
8
Black
10
33.3019
20
-22.7711
11
33.3019
21
-21.1709
0
LINE
8
Black
10
33.3019
20
-21.1709
11
36.8021
21
-20.7721
0
LINE
8
Black
10
36.8021
20
-20.7721
11
36.8021
21
-23.1699
0
LINE
8
Black
10
36.915
20
-64.646
11
36.365
21
-64.646
0
LINE
8
Black
10
36.365
20
-64.646
11
36.365
21
-63.146
0
LINE
8
Black
10
36.365
20
-63.146
11
36.915
21
-63.146
0
LINE
8
Black
10
36.915
20
-63.146
11
36.915
21
-64.646
0
LINE
8
Black
10
36.915
20
-76.046
11
36.365
21
-76.046
0
LINE
8
Black
10
36.365
20
-76.046
11
36.365
21
-74.546
0
LINE
8
Black
10
36.365
20
-74.546
11
36.915
21
-74.546
0
LINE
8
Black
10
36.915
20
-74.546
11
36.915
21
-76.046
0
LINE
8
Black
10
36.965
20
-55.87
11
35.965
21
-55.87
0
LINE
8
Black
10
35.965
20
-55.87
11
35.965
21
-54.62
0
LINE
8
Black
10
35.965
20
-54.62
11
36.965
21
-54.62
0
LINE
8
Black
10
36.965
20
-54.62
11
36.965
21
-55.87
0
LINE
8
Black
10
37.495
20
-81.676
11
36.795
21
-81.676
0
LINE
8
Black
10
36.795
20
-81.676
11
36.795
21
-80.376
0
LINE
8
Black
10
36.795
20
-80.376
11
37.495
21
-80.376
0
LINE
8
Black
10
37.495
20
-80.376
11
37.495
21
-81.676
0
LINE
8
Black
10
37.495
20
-87.264
11
36.795
21
-87.264
0
LINE
8
Black
10
36.795
20
-87.264
11
36.795
21
-85.964
0
LINE
8
Black
10
36.795
20
-85.964
11
37.495
21
-85.964
0
LINE
8
Black
10
37.495
20
-85.964
11
37.495
21
-87.264
0
LINE
8
Black
10
37.5958
20
-83.397
11
36.7957
21
-83.397
0
LINE
8
Black
10
36.7957
20
-83.397
11
36.7957
21
-82.5969
0
LINE
8
Black
10
36.7957
20
-82.5969
11
37.5958
21
-82.5969
0
LINE
8
Black
10
37.5958
20
-82.5969
11
37.5958
21
-83.397
0
LINE
8
Black
10
37.5958
20
-85.297
11
36.7957
21
-85.297
0
LINE
8
Black
10
36.7957
20
-85.297
11
36.7957
21
-84.4969
0
LINE
8
Black
10
36.7957
20
-84.4969
11
37.5958
21
-84.4969
0
LINE
8
Black
10
37.5958
20
-84.4969
11
37.5958
21
-85.297
0
LINE
8
Black
10
37.715
20
-64.646
11
37.165
21
-64.646
0
LINE
8
Black
10
37.165
20
-64.646
11
37.165
21
-63.146
0
LINE
8
Black
10
37.165
20
-63.146
11
37.715
21
-63.146
0
LINE
8
Black
10
37.715
20
-63.146
11
37.715
21
-64.646
0
LINE
8
Black
10
37.715
20
-76.046
11
37.165
21
-76.046
0
LINE
8
Black
10
37.165
20
-76.046
11
37.165
21
-74.546
0
LINE
8
Black
10
37.165
20
-74.546
11
37.715
21
-74.546
0
LINE
8
Black
10
37.715
20
-74.546
11
37.715
21
-76.046
0
LINE
8
Black
10
38.515
20
-64.646
11
37.965
21
-64.646
0
LINE
8
Black
10
37.965
20
-64.646
11
37.965
21
-63.146
0
LINE
8
Black
10
37.965
20
-63.146
11
38.515
21
-63.146
0
LINE
8
Black
10
38.515
20
-63.146
11
38.515
21
-64.646
0
LINE
8
Black
10
38.515
20
-76.046
11
37.965
21
-76.046
0
LINE
8
Black
10
37.965
20
-76.046
11
37.965
21
-74.546
0
LINE
8
Black
10
37.965
20
-74.546
11
38.515
21
-74.546
0
LINE
8
Black
10
38.515
20
-74.546
11
38.515
21
-76.046
0
LINE
8
Black
10
38.965
20
-55.87
11
37.965
21
-55.87
0
LINE
8
Black
10
37.965
20
-55.87
11
37.965
21
-54.62
0
LINE
8
Black
10
37.965
20
-54.62
11
38.965
21
-54.62
0
LINE
8
Black
10
38.965
20
-54.62
11
38.965
21
-55.87
0
LINE
8
Black
10
39.315
20
-64.646
11
38.765
21
-64.646
0
LINE
8
Black
10
38.765
20
-64.646
11
38.765
21
-63.146
0
LINE
8
Black
10
38.765
20
-63.146
11
39.315
21
-63.146
0
LINE
8
Black
10
39.315
20
-63.146
11
39.315
21
-64.646
0
LINE
8
Black
10
39.315
20
-76.046
11
38.765
21
-76.046
0
LINE
8
Black
10
38.765
20
-76.046
11
38.765
21
-74.546
0
LINE
8
Black
10
38.765
20
-74.546
11
39.315
21
-74.546
0
LINE
8
Black
10
39.315
20
-74.546
11
39.315
21
-76.046
0
LINE
8
Black
10
40.115
20
-64.646
11
39.565
21
-64.646
0
LINE
8
Black
10
39.565
20
-64.646
11
39.565
21
-63.146
0
LINE
8
Black
10
39.565
20
-63.146
11
40.115
21
-63.146
0
LINE
8
Black
10
40.115
20
-63.146
11
40.115
21
-64.646
0
LINE
8
Black
10
40.115
20
-76.046
11
39.565
21
-76.046
0
LINE
8
Black
10
39.565
20
-76.046
11
39.565
21
-74.546
0
LINE
8
Black
10
39.565
20
-74.546
11
40.115
21
-74.546
0
LINE
8
Black
10
40.115
20
-74.546
11
40.115
21
-76.046
0
LINE
8
Black
10
40.564
20
-11.481
11
39.014
21
-11.481
0
LINE
8
Black
10
39.014
20
-11.481
11
39.014
21
-10.181
0
LINE
8
Black
10
39.014
20
-10.181
11
40.564
21
-10.181
0
LINE
8
Black
10
40.564
20
-10.181
11
40.564
21
-11.481
0
LINE
8
Black
10
40.564
20
-15.981
11
39.014
21
-15.981
0
LINE
8
Black
10
39.014
20
-15.981
11
39.014
21
-14.681
0
LINE
8
Black
10
39.014
20
-14.681
11
40.564
21
-14.681
0
LINE
8
Black
10
40.564
20
-14.681
11
40.564
21
-15.981
0
LINE
8
Black
10
40.915
20
-64.646
11
40.365
21
-64.646
0
LINE
8
Black
10
40.365
20
-64.646
11
40.365
21
-63.146
0
LINE
8
Black
10
40.365
20
-63.146
11
40.915
21
-63.146
0
LINE
8
Black
10
40.915
20
-63.146
11
40.915
21
-64.646
0
LINE
8
Black
10
40.915
20
-76.046
11
40.365
21
-76.046
0
LINE
8
Black
10
40.365
20
-76.046
11
40.365
21
-74.546
0
LINE
8
Black
10
40.365
20
-74.546
11
40.915
21
-74.546
0
LINE
8
Black
10
40.915
20
-74.546
11
40.915
21
-76.046
0
LINE
8
Black
10
41.1455
20
-87.2376
11
39.1947
21
-87.2376
0
LINE
8
Black
10
39.1947
20
-87.2376
11
39.1947
21
-85.7364
0
LINE
8
Black
10
39.1947
20
-85.7364
11
41.1455
21
-85.7364
0
LINE
8
Black
10
41.1455
20
-85.7364
11
41.1455
21
-87.2376
0
LINE
8
Black
10
41.156
20
-79.873
11
40.156
21
-79.873
0
LINE
8
Black
10
40.156
20
-79.873
11
40.156
21
-78.623
0
LINE
8
Black
10
40.156
20
-78.623
11
41.156
21
-78.623
0
LINE
8
Black
10
41.156
20
-78.623
11
41.156
21
-79.873
0
LINE
8
Black
10
41.715
20
-64.646
11
41.165
21
-64.646
0
LINE
8
Black
10
41.165
20
-64.646
11
41.165
21
-63.146
0
LINE
8
Black
10
41.165
20
-63.146
11
41.715
21
-63.146
0
LINE
8
Black
10
41.715
20
-63.146
11
41.715
21
-64.646
0
LINE
8
Black
10
41.715
20
-76.046
11
41.165
21
-76.046
0
LINE
8
Black
10
41.165
20
-76.046
11
41.165
21
-74.546
0
LINE
8
Black
10
41.165
20
-74.546
11
41.715
21
-74.546
0
LINE
8
Black
10
41.715
20
-74.546
11
41.715
21
-76.046
0
LINE
8
Black
10
42.515
20
-64.646
11
41.965
21
-64.646
0
LINE
8
Black
10
41.965
20
-64.646
11
41.965
21
-63.146
0
LINE
8
Black
10
41.965
20
-63.146
11
42.515
21
-63.146
0
LINE
8
Black
10
42.515
20
-63.146
11
42.515
21
-64.646
0
LINE
8
Black
10
42.515
20
-76.046
11
41.965
21
-76.046
0
LINE
8
Black
10
41.965
20
-76.046
11
41.965
21
-74.546
0
LINE
8
Black
10
41.965
20
-74.546
11
42.515
21
-74.546
0
LINE
8
Black
10
42.515
20
-74.546
11
42.515
21
-76.046
0
LINE
8
Black
10
43.156
20
-79.873
11
42.156
21
-79.873
0
LINE
8
Black
10
42.156
20
-79.873
11
42.156
21
-78.623
0
LINE
8
Black
10
42.156
20
-78.623
11
43.156
21
-78.623
0
LINE
8
Black
10
43.156
20
-78.623
11
43.156
21
-79.873
0
LINE
8
Black
10
43.2956
20
-57.7825
11
41.7944
21
-57.7825
0
LINE
8
Black
10
41.7944
20
-57.7825
11
41.7944
21
-55.8317
0
LINE
8
Black
10
41.7944
20
-55.8317
11
43.2956
21
-55.8317
0
LINE
8
Black
10
43.2956
20
-55.8317
11
43.2956
21
-57.7825
0
LINE
8
Black
10
43.2956
20
-60.5003
11
41.7944
21
-60.5003
0
LINE
8
Black
10
41.7944
20
-60.5003
11
41.7944
21
-58.5495
0
LINE
8
Black
10
41.7944
20
-58.5495
11
43.2956
21
-58.5495
0
LINE
8
Black
10
43.2956
20
-58.5495
11
43.2956
21
-60.5003
0
LINE
8
Black
10
43.315
20
-64.646
11
42.765
21
-64.646
0
LINE
8
Black
10
42.765
20
-64.646
11
42.765
21
-63.146
0
LINE
8
Black
10
42.765
20
-63.146
11
43.315
21
-63.146
0
LINE
8
Black
10
43.315
20
-63.146
11
43.315
21
-64.646
0
LINE
8
Black
10
43.315
20
-76.046
11
42.765
21
-76.046
0
LINE
8
Black
10
42.765
20
-76.046
11
42.765
21
-74.546
0
LINE
8
Black
10
42.765
20
-74.546
11
43.315
21
-74.546
0
LINE
8
Black
10
43.315
20
-74.546
11
43.315
21
-76.046
0
LINE
8
Black
10
43.8633
20
-87.2376
11
41.9125
21
-87.2376
0
LINE
8
Black
10
41.9125
20
-87.2376
11
41.9125
21
-85.7364
0
LINE
8
Black
10
41.9125
20
-85.7364
11
43.8633
21
-85.7364
0
LINE
8
Black
10
43.8633
20
-85.7364
11
43.8633
21
-87.2376
0
LINE
8
Black
10
44.115
20
-64.646
11
43.565
21
-64.646
0
LINE
8
Black
10
43.565
20
-64.646
11
43.565
21
-63.146
0
LINE
8
Black
10
43.565
20
-63.146
11
44.115
21
-63.146
0
LINE
8
Black
10
44.115
20
-63.146
11
44.115
21
-64.646
0
LINE
8
Black
10
44.115
20
-76.046
11
43.565
21
-76.046
0
LINE
8
Black
10
43.565
20
-76.046
11
43.565
21
-74.546
0
LINE
8
Black
10
43.565
20
-74.546
11
44.115
21
-74.546
0
LINE
8
Black
10
44.115
20
-74.546
11
44.115
21
-76.046
0
LINE
8
Black
10
44.915
20
-64.646
11
44.365
21
-64.646
0
LINE
8
Black
10
44.365
20
-64.646
11
44.365
21
-63.146
0
LINE
8
Black
10
44.365
20
-63.146
11
44.915
21
-63.146
0
LINE
8
Black
10
44.915
20
-63.146
11
44.915
21
-64.646
0
LINE
8
Black
10
44.915
20
-76.046
11
44.365
21
-76.046
0
LINE
8
Black
10
44.365
20
-76.046
11
44.365
21
-74.546
0
LINE
8
Black
10
44.365
20
-74.546
11
44.915
21
-74.546
0
LINE
8
Black
10
44.915
20
-74.546
11
44.915
21
-76.046
0
LINE
8
Black
10
47.09
20
-65.871
11
45.59
21
-65.871
0
LINE
8
Black
10
45.59
20
-65.871
11
45.59
21
-65.321
0
LINE
8
Black
10
45.59
20
-65.321
11
47.09
21
-65.321
0
LINE
8
Black
10
47.09
20
-65.321
11
47.09
21
-65.871
0
LINE
8
Black
10
47.09
20
-66.671
11
45.59
21
-66.671
0
LINE
8
Black
10
45.59
20
-66.671
11
45.59
21
-66.121
0
LINE
8
Black
10
45.59
20
-66.121
11
47.09
21
-66.121
0
LINE
8
Black
10
47.09
20
-66.121
11
47.09
21
-66.671
0
LINE
8
Black
10
47.09
20
-67.471
11
45.59
21
-67.471
0
LINE
8
Black
10
45.59
20
-67.471
11
45.59
21
-66.921
0
LINE
8
Black
10
45.59
20
-66.921
11
47.09
21
-66.921
0
LINE
8
Black
10
47.09
20
-66.921
11
47.09
21
-67.471
0
LINE
8
Black
10
47.09
20
-68.271
11
45.59
21
-68.271
0
LINE
8
Black
10
45.59
20
-68.271
11
45.59
21
-67.721
0
LINE
8
Black
10
45.59
20
-67.721
11
47.09
21
-67.721
0
LINE
8
Black
10
47.09
20
-67.721
11
47.09
21
-68.271
0
LINE
8
Black
10
47.09
20
-69.071
11
45.59
21
-69.071
0
LINE
8
Black
10
45.59
20
-69.071
11
45.59
21
-68.521
0
LINE
8
Black
10
45.59
20
-68.521
11
47.09
21
-68.521
0
LINE
8
Black
10
47.09
20
-68.521
11
47.09
21
-69.071
0
LINE
8
Black
10
47.09
20
-69.871
11
45.59
21
-69.871
0
LINE
8
Black
10
45.59
20
-69.871
11
45.59
21
-69.321
0
LINE
8
Black
10
45.59
20
-69.321
11
47.09
21
-69.321
0
LINE
8
Black
10
47.09
20
-69.321
11
47.09
21
-69.871
0
LINE
8
Black
10
47.09
20
-70.671
11
45.59
21
-70.671
0
LINE
8
Black
10
45.59
20
-70.671
11
45.59
21
-70.121
0
LINE
8
Black
10
45.59
20
-70.121
11
47.09
21
-70.121
0
LINE
8
Black
10
47.09
20
-70.121
11
47.09
21
-70.671
0
LINE
8
Black
10
47.09
20
-71.471
11
45.59
21
-71.471
0
LINE
8
Black
10
45.59
20
-71.471
11
45.59
21
-70.921
0
LINE
8
Black
10
45.59
20
-70.921
11
47.09
21
-70.921
0
LINE
8
Black
10
47.09
20
-70.921
11
47.09
21
-71.471
0
LINE
8
Black
10
47.09
20
-72.271
11
45.59
21
-72.271
0
LINE
8
Black
10
45.59
20
-72.271
11
45.59
21
-71.721
0
LINE
8
Black
10
45.59
20
-71.721
11
47.09
21
-71.721
0
LINE
8
Black
10
47.09
20
-71.721
11
47.09
21
-72.271
0
LINE
8
Black
10
47.09
20
-73.071
11
45.59
21
-73.071
0
LINE
8
Black
10
45.59
20
-73.071
11
45.59
21
-72.521
0
LINE
8
Black
10
45.59
20
-72.521
11
47.09
21
-72.521
0
LINE
8
Black
10
47.09
20
-72.521
11
47.09
21
-73.071
0
LINE
8
Black
10
47.09
20
-73.871
11
45.59
21
-73.871
0
LINE
8
Black
10
45.59
20
-73.871
11
45.59
21
-73.321
0
LINE
8
Black
10
45.59
20
-73.321
11
47.09
21
-73.321
0
LINE
8
Black
10
47.09
20
-73.321
11
47.09
21
-73.871
0
LINE
8
Black
10
51.171
20
-69.35
11
49.921
21
-69.35
0
LINE
8
Black
10
49.921
20
-69.35
11
49.921
21
-68.35
0
LINE
8
Black
10
49.921
20
-68.35
11
51.171
21
-68.35
0
LINE
8
Black
10
51.171
20
-68.35
11
51.171
21
-69.35
0
LINE
8
Black
10
51.171
20
-71.35
11
49.921
21
-71.35
0
LINE
8
Black
10
49.921
20
-71.35
11
49.921
21
-70.35
0
LINE
8
Black
10
49.921
20
-70.35
11
51.171
21
-70.35
0
LINE
8
Black
10
51.171
20
-70.35
11
51.171
21
-71.35
0
LINE
8
Black
10
54.204
20
-68.758
11
52.654
21
-68.758
0
LINE
8
Black
10
52.654
20
-68.758
11
52.654
21
-67.458
0
LINE
8
Black
10
52.654
20
-67.458
11
54.204
21
-67.458
0
LINE
8
Black
10
54.204
20
-67.458
11
54.204
21
-68.758
0
LINE
8
Black
10
54.204
20
-73.258
11
52.654
21
-73.258
0
LINE
8
Black
10
52.654
20
-73.258
11
52.654
21
-71.958
0
LINE
8
Black
10
52.654
20
-71.958
11
54.204
21
-71.958
0
LINE
8
Black
10
54.204
20
-71.958
11
54.204
21
-73.258
0
LINE
8
Black
10
57.4408
20
-10.306
11
56.6407
21
-10.306
0
LINE
8
Black
10
56.6407
20
-10.306
11
56.6407
21
-9.50595
0
LINE
8
Black
10
56.6407
20
-9.50595
11
57.4408
21
-9.50595
0
LINE
8
Black
10
57.4408
20
-9.50595
11
57.4408
21
-10.306
0
LINE
8
Black
10
57.546
20
-50.454
11
56.246
21
-50.454
0
LINE
8
Black
10
56.246
20
-50.454
11
56.246
21
-49.754
0
LINE
8
Black
10
56.246
20
-49.754
11
57.546
21
-49.754
0
LINE
8
Black
10
57.546
20
-49.754
11
57.546
21
-50.454
0
LINE
8
Black
10
57.546
20
-52.354
11
56.246
21
-52.354
0
LINE
8
Black
10
56.246
20
-52.354
11
56.246
21
-51.654
0
LINE
8
Black
10
56.246
20
-51.654
11
57.546
21
-51.654
0
LINE
8
Black
10
57.546
20
-51.654
11
57.546
21
-52.354
0
LINE
8
Black
10
57.546
20
-54.01
11
56.246
21
-54.01
0
LINE
8
Black
10
56.246
20
-54.01
11
56.246
21
-53.31
0
LINE
8
Black
10
56.246
20
-53.31
11
57.546
21
-53.31
0
LINE
8
Black
10
57.546
20
-53.31
11
57.546
21
-54.01
0
LINE
8
Black
10
57.546
20
-55.91
11
56.246
21
-55.91
0
LINE
8
Black
10
56.246
20
-55.91
11
56.246
21
-55.21
0
LINE
8
Black
10
56.246
20
-55.21
11
57.546
21
-55.21
0
LINE
8
Black
10
57.546
20
-55.21
11
57.546
21
-55.91
0
LINE
8
Black
10
57.546
20
-57.566
11
56.246
21
-57.566
0
LINE
8
Black
10
56.246
20
-57.566
11
56.246
21
-56.866
0
LINE
8
Black
10
56.246
20
-56.866
11
57.546
21
-56.866
0
LINE
8
Black
10
57.546
20
-56.866
11
57.546
21
-57.566
0
LINE
8
Black
10
57.546
20
-59.466
11
56.246
21
-59.466
0
LINE
8
Black
10
56.246
20
-59.466
11
56.246
21
-58.766
0
LINE
8
Black
10
56.246
20
-58.766
11
57.546
21
-58.766
0
LINE
8
Black
10
57.546
20
-58.766
11
57.546
21
-59.466
0
LINE
8
Black
10
57.546
20
-60.868
11
56.246
21
-60.868
0
LINE
8
Black
10
56.246
20
-60.868
11
56.246
21
-60.168
0
LINE
8
Black
10
56.246
20
-60.168
11
57.546
21
-60.168
0
LINE
8
Black
10
57.546
20
-60.168
11
57.546
21
-60.868
0
LINE
8
Black
10
57.546
20
-62.768
11
56.246
21
-62.768
0
LINE
8
Black
10
56.246
20
-62.768
11
56.246
21
-62.068
0
LINE
8
Black
10
56.246
20
-62.068
11
57.546
21
-62.068
0
LINE
8
Black
10
57.546
20
-62.068
11
57.546
21
-62.768
0
LINE
8
Black
10
59.4398
20
-9.35605
11
58.6397
21
-9.35605
0
LINE
8
Black
10
58.6397
20
-9.35605
11
58.6397
21
-8.55595
0
LINE
8
Black
10
58.6397
20
-8.55595
11
59.4398
21
-8.55595
0
LINE
8
Black
10
59.4398
20
-8.55595
11
59.4398
21
-9.35605
0
LINE
8
Black
10
59.4398
20
-11.2561
11
58.6397
21
-11.2561
0
LINE
8
Black
10
58.6397
20
-11.2561
11
58.6397
21
-10.4559
0
LINE
8
Black
10
58.6397
20
-10.4559
11
59.4398
21
-10.4559
0
LINE
8
Black
10
59.4398
20
-10.4559
11
59.4398
21
-11.2561
0
LINE
8
Black
10
59.944
20
-58.674
11
58.928
21
-58.674
0
LINE
8
Black
10
58.928
20
-58.674
11
58.928
21
-56.642
0
LINE
8
Black
10
58.928
20
-56.642
11
59.944
21
-56.642
0
LINE
8
Black
10
59.944
20
-56.642
11
59.944
21
-58.674
0
LINE
8
Black
10
61.1937
20
-61.91
11
58.6943
21
-61.91
0
LINE
8
Black
10
58.6943
20
-61.91
11
58.6943
21
-59.9592
0
LINE
8
Black
10
58.6943
20
-59.9592
11
61.1937
21
-59.9592
0
LINE
8
Black
10
61.1937
20
-59.9592
11
61.1937
21
-61.91
0
LINE
8
Black
10
61.1937
20
-65.0088
11
58.6943
21
-65.0088
0
LINE
8
Black
10
58.6943
20
-65.0088
11
58.6943
21
-63.058
0
LINE
8
Black
10
58.6943
20
-63.058
11
61.1937
21
-63.058
0
LINE
8
Black
10
61.1937
20
-63.058
11
61.1937
21
-65.0088
0
LINE
8
Black
10
62.154
20
-68.758
11
60.604
21
-68.758
0
LINE
8
Black
10
60.604
20
-68.758
11
60.604
21
-67.458
0
LINE
8
Black
10
60.604
20
-67.458
11
62.154
21
-67.458
0
LINE
8
Black
10
62.154
20
-67.458
11
62.154
21
-68.758
0
LINE
8
Black
10
62.154
20
-73.258
11
60.604
21
-73.258
0
LINE
8
Black
10
60.604
20
-73.258
11
60.604
21
-71.958
0
LINE
8
Black
10
60.604
20
-71.958
11
62.154
21
-71.958
0
LINE
8
Black
10
62.154
20
-71.958
11
62.154
21
-73.258
0
LINE
8
Black
10
62.23
20
-58.674
11
61.214
21
-58.674
0
LINE
8
Black
10
61.214
20
-58.674
11
61.214
21
-56.642
0
LINE
8
Black
10
61.214
20
-56.642
11
62.23
21
-56.642
0
LINE
8
Black
10
62.23
20
-56.642
11
62.23
21
-58.674
0
LINE
8
Black
10
62.499
20
-9.306
11
61.199
21
-9.306
0
LINE
8
Black
10
61.199
20
-9.306
11
61.199
21
-8.606
0
LINE
8
Black
10
61.199
20
-8.606
11
62.499
21
-8.606
0
LINE
8
Black
10
62.499
20
-8.606
11
62.499
21
-9.306
0
LINE
8
Black
10
62.499
20
-11.206
11
61.199
21
-11.206
0
LINE
8
Black
10
61.199
20
-11.206
11
61.199
21
-10.506
0
LINE
8
Black
10
61.199
20
-10.506
11
62.499
21
-10.506
0
LINE
8
Black
10
62.499
20
-10.506
11
62.499
21
-11.206
0
LINE
8
Black
10
62.88
20
-69.758
11
61.58
21
-69.758
0
LINE
8
Black
10
61.58
20
-69.758
11
61.58
21
-69.058
0
LINE
8
Black
10
61.58
20
-69.058
11
62.88
21
-69.058
0
LINE
8
Black
10
62.88
20
-69.058
11
62.88
21
-69.758
0
LINE
8
Black
10
62.88
20
-71.658
11
61.58
21
-71.658
0
LINE
8
Black
10
61.58
20
-71.658
11
61.58
21
-70.958
0
LINE
8
Black
10
61.58
20
-70.958
11
62.88
21
-70.958
0
LINE
8
Black
10
62.88
20
-70.958
11
62.88
21
-71.658
0
LINE
8
Black
10
63.154
20
-75.834
11
62.454
21
-75.834
0
LINE
8
Black
10
62.454
20
-75.834
11
62.454
21
-74.534
0
LINE
8
Black
10
62.454
20
-74.534
11
63.154
21
-74.534
0
LINE
8
Black
10
63.154
20
-74.534
11
63.154
21
-75.834
0
LINE
8
Black
10
63.5508
20
-52.07
11
59.8932
21
-52.07
0
LINE
8
Black
10
59.8932
20
-52.07
11
59.8932
21
-50.038
0
LINE
8
Black
10
59.8932
20
-50.038
11
63.5508
21
-50.038
0
LINE
8
Black
10
63.5508
20
-50.038
11
63.5508
21
-52.07
0
LINE
8
Black
10
63.9966
20
-62.1005
11
62.4954
21
-62.1005
0
LINE
8
Black
10
62.4954
20
-62.1005
11
62.4954
21
-60.1497
0
LINE
8
Black
10
62.4954
20
-60.1497
11
63.9966
21
-60.1497
0
LINE
8
Black
10
63.9966
20
-60.1497
11
63.9966
21
-62.1005
0
LINE
8
Black
10
63.9966
20
-64.8183
11
62.4954
21
-64.8183
0
LINE
8
Black
10
62.4954
20
-64.8183
11
62.4954
21
-62.8675
0
LINE
8
Black
10
62.4954
20
-62.8675
11
63.9966
21
-62.8675
0
LINE
8
Black
10
63.9966
20
-62.8675
11
63.9966
21
-64.8183
0
LINE
8
Black
10
64.516
20
-58.674
11
63.5
21
-58.674
0
LINE
8
Black
10
63.5
20
-58.674
11
63.5
21
-56.642
0
LINE
8
Black
10
63.5
20
-56.642
11
64.516
21
-56.642
0
LINE
8
Black
10
64.516
20
-56.642
11
64.516
21
-58.674
0
LINE
8
Black
10
65.054
20
-75.834
11
64.354
21
-75.834
0
LINE
8
Black
10
64.354
20
-75.834
11
64.354
21
-74.534
0
LINE
8
Black
10
64.354
20
-74.534
11
65.054
21
-74.534
0
LINE
8
Black
10
65.054
20
-74.534
11
65.054
21
-75.834
0
LINE
8
Black
10
66.583
20
-75.834
11
65.883
21
-75.834
0
LINE
8
Black
10
65.883
20
-75.834
11
65.883
21
-74.534
0
LINE
8
Black
10
65.883
20
-74.534
11
66.583
21
-74.534
0
LINE
8
Black
10
66.583
20
-74.534
11
66.583
21
-75.834
0
LINE
8
Black
10
68.483
20
-75.834
11
67.783
21
-75.834
0
LINE
8
Black
10
67.783
20
-75.834
11
67.783
21
-74.534
0
LINE
8
Black
10
67.783
20
-74.534
11
68.483
21
-74.534
0
LINE
8
Black
10
68.483
20
-74.534
11
68.483
21
-75.834
0
LINE
8
Black
10
72.1944
20
-61.4324
11
70.9955
21
-61.4324
0
LINE
8
Black
10
70.9955
20
-61.4324
11
70.9955
21
-60.2336
0
LINE
8
Black
10
70.9955
20
-60.2336
11
72.1944
21
-60.2336
0
LINE
8
Black
10
72.1944
20
-60.2336
11
72.1944
21
-61.4324
0
LINE
8
Black
10
73.2917
20
-77.6084
11
70.7923
21
-77.6084
0
LINE
8
Black
10
70.7923
20
-77.6084
11
70.7923
21
-75.8076
0
LINE
8
Black
10
70.7923
20
-75.8076
11
73.2917
21
-75.8076
0
LINE
8
Black
10
73.2917
20
-75.8076
11
73.2917
21
-77.6084
0
LINE
8
Black
10
73.439
20
-54.8195
11
71.2902
21
-54.8195
0
LINE
8
Black
10
71.2902
20
-54.8195
11
71.2902
21
-49.3205
0
LINE
8
Black
10
71.2902
20
-49.3205
11
73.439
21
-49.3205
0
LINE
8
Black
10
73.439
20
-49.3205
11
73.439
21
-54.8195
0
LINE
8
Black
10
73.6727
20
-45.8584
11
71.1733
21
-45.8584
0
LINE
8
Black
10
71.1733
20
-45.8584
11
71.1733
21
-44.0576
0
LINE
8
Black
10
71.1733
20
-44.0576
11
73.6727
21
-44.0576
0
LINE
8
Black
10
73.6727
20
-44.0576
11
73.6727
21
-45.8584
0
LINE
8
Black
10
74.0791
20
-68.6422
11
72.4789
21
-68.6422
0
LINE
8
Black
10
72.4789
20
-68.6422
11
72.4789
21
-65.6425
0
LINE
8
Black
10
72.4789
20
-65.6425
11
74.0791
21
-65.6425
0
LINE
8
Black
10
74.0791
20
-65.6425
11
74.0791
21
-68.6422
0
LINE
8
Black
10
74.0791
20
-73.0415
11
72.4789
21
-73.0415
0
LINE
8
Black
10
72.4789
20
-73.0415
11
72.4789
21
-70.0418
0
LINE
8
Black
10
72.4789
20
-70.0418
11
74.0791
21
-70.0418
0
LINE
8
Black
10
74.0791
20
-70.0418
11
74.0791
21
-73.0415
0
LINE
8
Black
10
74.2061
20
-33.4632
11
72.6059
21
-33.4632
0
LINE
8
Black
10
72.6059
20
-33.4632
11
72.6059
21
-30.4635
0
LINE
8
Black
10
72.6059
20
-30.4635
11
74.2061
21
-30.4635
0
LINE
8
Black
10
74.2061
20
-30.4635
11
74.2061
21
-33.4632
0
LINE
8
Black
10
74.2061
20
-37.8625
11
72.6059
21
-37.8625
0
LINE
8
Black
10
72.6059
20
-37.8625
11
72.6059
21
-34.8628
0
LINE
8
Black
10
72.6059
20
-34.8628
11
74.2061
21
-34.8628
0
LINE
8
Black
10
74.2061
20
-34.8628
11
74.2061
21
-37.8625
0
LINE
8
Black
10
74.2925
20
-61.4324
11
73.0936
21
-61.4324
0
LINE
8
Black
10
73.0936
20
-61.4324
11
73.0936
21
-60.2336
0
LINE
8
Black
10
73.0936
20
-60.2336
11
74.2925
21
-60.2336
0
LINE
8
Black
10
74.2925
20
-60.2336
11
74.2925
21
-61.4324
0
LINE
8
Black
10
75.473
20
-61.483
11
74.773
21
-61.483
0
LINE
8
Black
10
74.773
20
-61.483
11
74.773
21
-60.183
0
LINE
8
Black
10
74.773
20
-60.183
11
75.473
21
-60.183
0
LINE
8
Black
10
75.473
20
-60.183
11
75.473
21
-61.483
0
LINE
8
Black
10
76.5365
20
-81.948
11
71.0374
21
-81.948
0
LINE
8
Black
10
71.0374
20
-81.948
11
71.0374
21
-79.7992
0
LINE
8
Black
10
71.0374
20
-79.7992
11
76.5365
21
-79.7992
0
LINE
8
Black
10
76.5365
20
-79.7992
11
76.5365
21
-81.948
0
LINE
8
Black
10
76.5365
20
-85.8088
11
71.0374
21
-85.8088
0
LINE
8
Black
10
71.0374
20
-85.8088
11
71.0374
21
-83.66
0
LINE
8
Black
10
71.0374
20
-83.66
11
76.5365
21
-83.66
0
LINE
8
Black
10
76.5365
20
-83.66
11
76.5365
21
-85.8088
0
LINE
8
Black
10
77.2897
20
-77.6084
11
74.7903
21
-77.6084
0
LINE
8
Black
10
74.7903
20
-77.6084
11
74.7903
21
-75.8076
0
LINE
8
Black
10
74.7903
20
-75.8076
11
77.2897
21
-75.8076
0
LINE
8
Black
10
77.2897
20
-75.8076
11
77.2897
21
-77.6084
0
LINE
8
Black
10
77.2998
20
-54.8195
11
75.151
21
-54.8195
0
LINE
8
Black
10
75.151
20
-54.8195
11
75.151
21
-49.3205
0
LINE
8
Black
10
75.151
20
-49.3205
11
77.2998
21
-49.3205
0
LINE
8
Black
10
77.2998
20
-49.3205
11
77.2998
21
-54.8195
0
LINE
8
Black
10
77.373
20
-61.483
11
76.673
21
-61.483
0
LINE
8
Black
10
76.673
20
-61.483
11
76.673
21
-60.183
0
LINE
8
Black
10
76.673
20
-60.183
11
77.373
21
-60.183
0
LINE
8
Black
10
77.373
20
-60.183
11
77.373
21
-61.483
0
LINE
8
Black
10
77.6707
20
-45.8584
11
75.1713
21
-45.8584
0
LINE
8
Black
10
75.1713
20
-45.8584
11
75.1713
21
-44.0576
0
LINE
8
Black
10
75.1713
20
-44.0576
11
77.6707
21
-44.0576
0
LINE
8
Black
10
77.6707
20
-44.0576
11
77.6707
21
-45.8584
0
LINE
8
Black
10
78.571
20
-78.0123
11
77.7709
21
-78.0123
0
LINE
8
Black
10
77.7709
20
-78.0123
11
77.7709
21
-77.2122
0
LINE
8
Black
10
77.7709
20
-77.2122
11
78.571
21
-77.2122
0
LINE
8
Black
10
78.571
20
-77.2122
11
78.571
21
-78.0123
0
LINE
8
Black
10
78.775
20
-83.2
11
78.075
21
-83.2
0
LINE
8
Black
10
78.075
20
-83.2
11
78.075
21
-81.9
0
LINE
8
Black
10
78.075
20
-81.9
11
78.775
21
-81.9
0
LINE
8
Black
10
78.775
20
-81.9
11
78.775
21
-83.2
0
LINE
8
Black
10
78.775
20
-85.359
11
78.075
21
-85.359
0
LINE
8
Black
10
78.075
20
-85.359
11
78.075
21
-84.059
0
LINE
8
Black
10
78.075
20
-84.059
11
78.775
21
-84.059
0
LINE
8
Black
10
78.775
20
-84.059
11
78.775
21
-85.359
0
LINE
8
Black
10
78.875
20
-87.62
11
77.875
21
-87.62
0
LINE
8
Black
10
77.875
20
-87.62
11
77.875
21
-86.37
0
LINE
8
Black
10
77.875
20
-86.37
11
78.875
21
-86.37
0
LINE
8
Black
10
78.875
20
-86.37
11
78.875
21
-87.62
0
LINE
8
Black
10
79.5211
20
-80.0113
11
78.721
21
-80.0113
0
LINE
8
Black
10
78.721
20
-80.0113
11
78.721
21
-79.2112
0
LINE
8
Black
10
78.721
20
-79.2112
11
79.5211
21
-79.2112
0
LINE
8
Black
10
79.5211
20
-79.2112
11
79.5211
21
-80.0113
0
LINE
8
Black
10
79.69
20
-90.944
11
78.24
21
-90.944
0
LINE
8
Black
10
78.24
20
-90.944
11
78.24
21
-90.494
0
LINE
8
Black
10
78.24
20
-90.494
11
79.69
21
-90.494
0
LINE
8
Black
10
79.69
20
-90.494
11
79.69
21
-90.944
0
LINE
8
Black
10
79.69
20
-91.594
11
78.24
21
-91.594
0
LINE
8
Black
10
78.24
20
-91.594
11
78.24
21
-91.144
0
LINE
8
Black
10
78.24
20
-91.144
11
79.69
21
-91.144
0
LINE
8
Black
10
79.69
20
-91.144
11
79.69
21
-91.594
0
LINE
8
Black
10
79.69
20
-92.244
11
78.24
21
-92.244
0
LINE
8
Black
10
78.24
20
-92.244
11
78.24
21
-91.794
0
LINE
8
Black
10
78.24
20
-91.794
11
79.69
21
-91.794
0
LINE
8
Black
10
79.69
20
-91.794
11
79.69
21
-92.244
0
LINE
8
Black
10
79.69
20
-92.894
11
78.24
21
-92.894
0
LINE
8
Black
10
78.24
20
-92.894
11
78.24
21
-92.444
0
LINE
8
Black
10
78.24
20
-92.444
11
79.69
21
-92.444
0
LINE
8
Black
10
79.69
20
-92.444
11
79.69
21
-92.894
0
LINE
8
Black
10
80.0951
20
-46.8973
11
79.295
21
-46.8973
0
LINE
8
Black
10
79.295
20
-46.8973
11
79.295
21
-46.0972
0
LINE
8
Black
10
79.295
20
-46.0972
11
80.0951
21
-46.0972
0
LINE
8
Black
10
80.0951
20
-46.0972
11
80.0951
21
-46.8973
0
LINE
8
Black
10
80.3021
20
-33.9738
11
78.7019
21
-33.9738
0
LINE
8
Black
10
78.7019
20
-33.9738
11
78.7019
21
-30.3746
0
LINE
8
Black
10
78.7019
20
-30.3746
11
80.3021
21
-30.3746
0
LINE
8
Black
10
80.3021
20
-30.3746
11
80.3021
21
-33.9738
0
LINE
8
Black
10
80.3021
20
-39.4754
11
78.7019
21
-39.4754
0
LINE
8
Black
10
78.7019
20
-39.4754
11
78.7019
21
-35.8762
0
LINE
8
Black
10
78.7019
20
-35.8762
11
80.3021
21
-35.8762
0
LINE
8
Black
10
80.3021
20
-35.8762
11
80.3021
21
-39.4754
0
LINE
8
Black
10
80.3021
20
-68.8988
11
78.7019
21
-68.8988
0
LINE
8
Black
10
78.7019
20
-68.8988
11
78.7019
21
-65.2996
0
LINE
8
Black
10
78.7019
20
-65.2996
11
80.3021
21
-65.2996
0
LINE
8
Black
10
80.3021
20
-65.2996
11
80.3021
21
-68.8988
0
LINE
8
Black
10
80.3021
20
-74.4004
11
78.7019
21
-74.4004
0
LINE
8
Black
10
78.7019
20
-74.4004
11
78.7019
21
-70.8012
0
LINE
8
Black
10
78.7019
20
-70.8012
11
80.3021
21
-70.8012
0
LINE
8
Black
10
80.3021
20
-70.8012
11
80.3021
21
-74.4004
0
LINE
8
Black
10
80.471
20
-78.0123
11
79.6709
21
-78.0123
0
LINE
8
Black
10
79.6709
20
-78.0123
11
79.6709
21
-77.2122
0
LINE
8
Black
10
79.6709
20
-77.2122
11
80.471
21
-77.2122
0
LINE
8
Black
10
80.471
20
-77.2122
11
80.471
21
-78.0123
0
LINE
8
Black
10
80.675
20
-83.2
11
79.975
21
-83.2
0
LINE
8
Black
10
79.975
20
-83.2
11
79.975
21
-81.9
0
LINE
8
Black
10
79.975
20
-81.9
11
80.675
21
-81.9
0
LINE
8
Black
10
80.675
20
-81.9
11
80.675
21
-83.2
0
LINE
8
Black
10
80.675
20
-85.359
11
79.975
21
-85.359
0
LINE
8
Black
10
79.975
20
-85.359
11
79.975
21
-84.059
0
LINE
8
Black
10
79.975
20
-84.059
11
80.675
21
-84.059
0
LINE
8
Black
10
80.675
20
-84.059
11
80.675
21
-85.359
0
LINE
8
Black
10
80.875
20
-87.62
11
79.875
21
-87.62
0
LINE
8
Black
10
79.875
20
-87.62
11
79.875
21
-86.37
0
LINE
8
Black
10
79.875
20
-86.37
11
80.875
21
-86.37
0
LINE
8
Black
10
80.875
20
-86.37
11
80.875
21
-87.62
0
LINE
8
Black
10
81.0451
20
-48.8963
11
80.245
21
-48.8963
0
LINE
8
Black
10
80.245
20
-48.8963
11
80.245
21
-48.0962
0
LINE
8
Black
10
80.245
20
-48.0962
11
81.0451
21
-48.0962
0
LINE
8
Black
10
81.0451
20
-48.0962
11
81.0451
21
-48.8963
0
LINE
8
Black
10
81.995
20
-46.8973
11
81.1949
21
-46.8973
0
LINE
8
Black
10
81.1949
20
-46.8973
11
81.1949
21
-46.0972
0
LINE
8
Black
10
81.1949
20
-46.0972
11
81.995
21
-46.0972
0
LINE
8
Black
10
81.995
20
-46.0972
11
81.995
21
-46.8973
0
LINE
8
Black
10
83.327
20
-76.108
11
82.027
21
-76.108
0
LINE
8
Black
10
82.027
20
-76.108
11
82.027
21
-75.408
0
LINE
8
Black
10
82.027
20
-75.408
11
83.327
21
-75.408
0
LINE
8
Black
10
83.327
20
-75.408
11
83.327
21
-76.108
0
LINE
8
Black
10
83.327
20
-78.008
11
82.027
21
-78.008
0
LINE
8
Black
10
82.027
20
-78.008
11
82.027
21
-77.308
0
LINE
8
Black
10
82.027
20
-77.308
11
83.327
21
-77.308
0
LINE
8
Black
10
83.327
20
-77.308
11
83.327
21
-78.008
0
LINE
8
Black
10
83.631
20
-80.147
11
82.571
21
-80.147
0
LINE
8
Black
10
82.571
20
-80.147
11
82.571
21
-79.497
0
LINE
8
Black
10
82.571
20
-79.497
11
83.631
21
-79.497
0
LINE
8
Black
10
83.631
20
-79.497
11
83.631
21
-80.147
0
LINE
8
Black
10
83.631
20
-81.097
11
82.571
21
-81.097
0
LINE
8
Black
10
82.571
20
-81.097
11
82.571
21
-80.447
0
LINE
8
Black
10
82.571
20
-80.447
11
83.631
21
-80.447
0
LINE
8
Black
10
83.631
20
-80.447
11
83.631
21
-81.097
0
LINE
8
Black
10
83.631
20
-82.047
11
82.571
21
-82.047
0
LINE
8
Black
10
82.571
20
-82.047
11
82.571
21
-81.397
0
LINE
8
Black
10
82.571
20
-81.397
11
83.631
21
-81.397
0
LINE
8
Black
10
83.631
20
-81.397
11
83.631
21
-82.047
0
LINE
8
Black
10
84.266
20
-69.352
11
83.206
21
-69.352
0
LINE
8
Black
10
83.206
20
-69.352
11
83.206
21
-68.702
0
LINE
8
Black
10
83.206
20
-68.702
11
84.266
21
-68.702
0
LINE
8
Black
10
84.266
20
-68.702
11
84.266
21
-69.352
0
LINE
8
Black
10
84.266
20
-71.252
11
83.206
21
-71.252
0
LINE
8
Black
10
83.206
20
-71.252
11
83.206
21
-70.602
0
LINE
8
Black
10
83.206
20
-70.602
11
84.266
21
-70.602
0
LINE
8
Black
10
84.266
20
-70.602
11
84.266
21
-71.252
0
LINE
8
Black
10
85.0786
20
-63.3705
11
83.5774
21
-63.3705
0
LINE
8
Black
10
83.5774
20
-63.3705
11
83.5774
21
-61.4197
0
LINE
8
Black
10
83.5774
20
-61.4197
11
85.0786
21
-61.4197
0
LINE
8
Black
10
85.0786
20
-61.4197
11
85.0786
21
-63.3705
0
LINE
8
Black
10
85.0786
20
-66.0883
11
83.5774
21
-66.0883
0
LINE
8
Black
10
83.5774
20
-66.0883
11
83.5774
21
-64.1375
0
LINE
8
Black
10
83.5774
20
-64.1375
11
85.0786
21
-64.1375
0
LINE
8
Black
10
85.0786
20
-64.1375
11
85.0786
21
-66.0883
0
LINE
8
Black
10
85.486
20
-76.108
11
84.186
21
-76.108
0
LINE
8
Black
10
84.186
20
-76.108
11
84.186
21
-75.408
0
LINE
8
Black
10
84.186
20
-75.408
11
85.486
21
-75.408
0
LINE
8
Black
10
85.486
20
-75.408
11
85.486
21
-76.108
0
LINE
8
Black
10
85.486
20
-78.008
11
84.186
21
-78.008
0
LINE
8
Black
10
84.186
20
-78.008
11
84.186
21
-77.308
0
LINE
8
Black
10
84.186
20
-77.308
11
85.486
21
-77.308
0
LINE
8
Black
10
85.486
20
-77.308
11
85.486
21
-78.008
0
LINE
8
Black
10
85.59
20
-90.944
11
84.14
21
-90.944
0
LINE
8
Black
10
84.14
20
-90.944
11
84.14
21
-90.494
0
LINE
8
Black
10
84.14
20
-90.494
11
85.59
21
-90.494
0
LINE
8
Black
10
85.59
20
-90.494
11
85.59
21
-90.944
0
LINE
8
Black
10
85.59
20
-91.594
11
84.14
21
-91.594
0
LINE
8
Black
10
84.14
20
-91.594
11
84.14
21
-91.144
0
LINE
8
Black
10
84.14
20
-91.144
11
85.59
21
-91.144
0
LINE
8
Black
10
85.59
20
-91.144
11
85.59
21
-91.594
0
LINE
8
Black
10
85.59
20
-92.244
11
84.14
21
-92.244
0
LINE
8
Black
10
84.14
20
-92.244
11
84.14
21
-91.794
0
LINE
8
Black
10
84.14
20
-91.794
11
85.59
21
-91.794
0
LINE
8
Black
10
85.59
20
-91.794
11
85.59
21
-92.244
0
LINE
8
Black
10
85.59
20
-92.894
11
84.14
21
-92.894
0
LINE
8
Black
10
84.14
20
-92.894
11
84.14
21
-92.444
0
LINE
8
Black
10
84.14
20
-92.444
11
85.59
21
-92.444
0
LINE
8
Black
10
85.59
20
-92.444
11
85.59
21
-92.894
0
LINE
8
Black
10
85.831
20
-80.147
11
84.771
21
-80.147
0
LINE
8
Black
10
84.771
20
-80.147
11
84.771
21
-79.497
0
LINE
8
Black
10
84.771
20
-79.497
11
85.831
21
-79.497
0
LINE
8
Black
10
85.831
20
-79.497
11
85.831
21
-80.147
0
LINE
8
Black
10
85.831
20
-81.097
11
84.771
21
-81.097
0
LINE
8
Black
10
84.771
20
-81.097
11
84.771
21
-80.447
0
LINE
8
Black
10
84.771
20
-80.447
11
85.831
21
-80.447
0
LINE
8
Black
10
85.831
20
-80.447
11
85.831
21
-81.097
0
LINE
8
Black
10
85.831
20
-82.047
11
84.771
21
-82.047
0
LINE
8
Black
10
84.771
20
-82.047
11
84.771
21
-81.397
0
LINE
8
Black
10
84.771
20
-81.397
11
85.831
21
-81.397
0
LINE
8
Black
10
85.831
20
-81.397
11
85.831
21
-82.047
0
LINE
8
Black
10
85.994
20
-86.014
11
84.694
21
-86.014
0
LINE
8
Black
10
84.694
20
-86.014
11
84.694
21
-85.314
0
LINE
8
Black
10
84.694
20
-85.314
11
85.994
21
-85.314
0
LINE
8
Black
10
85.994
20
-85.314
11
85.994
21
-86.014
0
LINE
8
Black
10
85.994
20
-87.914
11
84.694
21
-87.914
0
LINE
8
Black
10
84.694
20
-87.914
11
84.694
21
-87.214
0
LINE
8
Black
10
84.694
20
-87.214
11
85.994
21
-87.214
0
LINE
8
Black
10
85.994
20
-87.214
11
85.994
21
-87.914
0
LINE
8
Black
10
86.466
20
-69.352
11
85.406
21
-69.352
0
LINE
8
Black
10
85.406
20
-69.352
11
85.406
21
-68.702
0
LINE
8
Black
10
85.406
20
-68.702
11
86.466
21
-68.702
0
LINE
8
Black
10
86.466
20
-68.702
11
86.466
21
-69.352
0
LINE
8
Black
10
86.466
20
-70.302
11
85.406
21
-70.302
0
LINE
8
Black
10
85.406
20
-70.302
11
85.406
21
-69.652
0
LINE
8
Black
10
85.406
20
-69.652
11
86.466
21
-69.652
0
LINE
8
Black
10
86.466
20
-69.652
11
86.466
21
-70.302
0
LINE
8
Black
10
86.466
20
-71.252
11
85.406
21
-71.252
0
LINE
8
Black
10
85.406
20
-71.252
11
85.406
21
-70.602
0
LINE
8
Black
10
85.406
20
-70.602
11
86.466
21
-70.602
0
LINE
8
Black
10
86.466
20
-70.602
11
86.466
21
-71.252
0
LINE
8
Black
10
86.8794
20
-29.8577
11
85.0786
21
-29.8577
0
LINE
8
Black
10
85.0786
20
-29.8577
11
85.0786
21
-27.3583
0
LINE
8
Black
10
85.0786
20
-27.3583
11
86.8794
21
-27.3583
0
LINE
8
Black
10
86.8794
20
-27.3583
11
86.8794
21
-29.8577
0
LINE
8
Black
10
86.8794
20
-33.8557
11
85.0786
21
-33.8557
0
LINE
8
Black
10
85.0786
20
-33.8557
11
85.0786
21
-31.3563
0
LINE
8
Black
10
85.0786
20
-31.3563
11
86.8794
21
-31.3563
0
LINE
8
Black
10
86.8794
20
-31.3563
11
86.8794
21
-33.8557
0
LINE
8
Black
10
87.518
20
-76.108
11
86.218
21
-76.108
0
LINE
8
Black
10
86.218
20
-76.108
11
86.218
21
-75.408
0
LINE
8
Black
10
86.218
20
-75.408
11
87.518
21
-75.408
0
LINE
8
Black
10
87.518
20
-75.408
11
87.518
21
-76.108
0
LINE
8
Black
10
87.518
20
-78.008
11
86.218
21
-78.008
0
LINE
8
Black
10
86.218
20
-78.008
11
86.218
21
-77.308
0
LINE
8
Black
10
86.218
20
-77.308
11
87.518
21
-77.308
0
LINE
8
Black
10
87.518
20
-77.308
11
87.518
21
-78.008
  0
ENDSEC
  0
EOF
